# MagicaVoxel @ Ephtracy

# group
o 

# material
mtllib swam water&land3.mtl
usemtl palette

# normals
vn -1 0 0
vn 1 0 0
vn 0 0 1
vn 0 0 -1
vn 0 -1 0
vn 0 1 0

# texcoords
vt 0.650391 0.5
vt 0.818359 0.5

# verts
v -0.8 0 0.8
v -0.8 0 -0.8
v -0.8 1.2 0.8
v -0.8 1.2 0
v -0.8 1.2 -0.8
v -0.8 1.4 0.8
v -0.8 1.4 0
v -0.4 1.2 0
v -0.4 1.2 -0.1
v -0.4 1.4 0
v -0.4 1.4 -0.1
v -0.2 1.2 -0.1
v -0.2 1.2 -0.2
v -0.2 1.4 -0.1
v -0.2 1.4 -0.2
v -0.1 1.2 -0.2
v -0.1 1.2 -0.4
v -0.1 1.4 -0.2
v -0.1 1.4 -0.4
v 0 1.2 -0.4
v 0 1.2 -0.8
v 0 1.4 -0.4
v 0 1.4 -0.8
v 0.8 0 0.8
v 0.8 0 -0.8
v 0.8 1.2 0.8
v 0.8 1.2 -0.8
v 0.8 1.4 0.8
v 0.8 1.4 -0.8
v -0.8 0 0.8
v -0.8 1.2 0.8
v -0.8 1.4 0.8
v 0.8 0 0.8
v 0.8 1.2 0.8
v 0.8 1.4 0.8
v -0.8 1.2 0
v -0.8 1.4 0
v -0.4 1.2 0
v -0.4 1.4 0
v -0.4 1.2 -0.1
v -0.4 1.4 -0.1
v -0.2 1.2 -0.1
v -0.2 1.4 -0.1
v -0.2 1.2 -0.2
v -0.2 1.4 -0.2
v -0.1 1.2 -0.2
v -0.1 1.4 -0.2
v -0.1 1.2 -0.4
v -0.1 1.4 -0.4
v 0 1.2 -0.4
v 0 1.4 -0.4
v -0.8 0 -0.8
v -0.8 1.2 -0.8
v 0 1.2 -0.8
v 0 1.4 -0.8
v 0.8 0 -0.8
v 0.8 1.2 -0.8
v 0.8 1.4 -0.8
v -0.8 0 0.8
v 0.8 0 0.8
v -0.8 0 -0.8
v 0.8 0 -0.8
v -0.8 1.2 0
v -0.4 1.2 0
v -0.4 1.2 -0.1
v -0.2 1.2 -0.1
v -0.2 1.2 -0.2
v -0.1 1.2 -0.2
v -0.1 1.2 -0.4
v 0 1.2 -0.4
v -0.8 1.2 -0.8
v 0 1.2 -0.8
v -0.8 1.4 0.8
v 0.8 1.4 0.8
v -0.8 1.4 0
v -0.4 1.4 0
v -0.4 1.4 -0.1
v -0.2 1.4 -0.1
v -0.2 1.4 -0.2
v -0.1 1.4 -0.2
v -0.1 1.4 -0.4
v 0 1.4 -0.4
v 0 1.4 -0.8
v 0.8 1.4 -0.8

# faces
f 3/1/1 2/1/1 1/1/1
f 4/1/1 2/1/1 3/1/1
f 5/1/1 2/1/1 4/1/1
f 6/2/1 4/2/1 3/2/1
f 7/2/1 4/2/1 6/2/1
f 10/2/1 9/2/1 8/2/1
f 11/2/1 9/2/1 10/2/1
f 14/2/1 13/2/1 12/2/1
f 15/2/1 13/2/1 14/2/1
f 18/2/1 17/2/1 16/2/1
f 19/2/1 17/2/1 18/2/1
f 22/2/1 21/2/1 20/2/1
f 23/2/1 21/2/1 22/2/1
f 24/1/2 25/1/2 26/1/2
f 26/1/2 25/1/2 27/1/2
f 26/2/2 27/2/2 28/2/2
f 28/2/2 27/2/2 29/2/2
f 33/1/3 31/1/3 30/1/3
f 34/2/3 32/2/3 31/2/3
f 34/1/3 31/1/3 33/1/3
f 35/2/3 32/2/3 34/2/3
f 36/2/4 37/2/4 38/2/4
f 38/2/4 37/2/4 39/2/4
f 40/2/4 41/2/4 42/2/4
f 42/2/4 41/2/4 43/2/4
f 44/2/4 45/2/4 46/2/4
f 46/2/4 45/2/4 47/2/4
f 48/2/4 49/2/4 50/2/4
f 50/2/4 49/2/4 51/2/4
f 52/1/4 53/1/4 54/1/4
f 52/1/4 54/1/4 56/1/4
f 54/2/4 55/2/4 57/2/4
f 56/1/4 54/1/4 57/1/4
f 57/2/4 55/2/4 58/2/4
f 61/1/5 60/1/5 59/1/5
f 62/1/5 60/1/5 61/1/5
f 63/1/6 64/1/6 65/1/6
f 65/1/6 66/1/6 67/1/6
f 67/1/6 68/1/6 69/1/6
f 63/1/6 65/1/6 71/1/6
f 69/1/6 70/1/6 71/1/6
f 67/1/6 69/1/6 71/1/6
f 65/1/6 67/1/6 71/1/6
f 71/1/6 70/1/6 72/1/6
f 73/2/6 74/2/6 75/2/6
f 75/2/6 74/2/6 76/2/6
f 76/2/6 74/2/6 77/2/6
f 77/2/6 74/2/6 78/2/6
f 78/2/6 74/2/6 79/2/6
f 79/2/6 74/2/6 80/2/6
f 80/2/6 74/2/6 81/2/6
f 81/2/6 74/2/6 82/2/6
f 82/2/6 74/2/6 83/2/6
f 83/2/6 74/2/6 84/2/6
