# MagicaVoxel @ Ephtracy

# group
o 

# material
mtllib river&sea water1.mtl
usemtl palette

# normals
vn -1 0 0
vn 1 0 0
vn 0 0 1
vn 0 0 -1
vn 0 -1 0
vn 0 1 0

# texcoords
vt 0.822266 0.5
vt 0.826172 0.5
vt 0.830078 0.5

# verts
v -0.8 0 0.8
v -0.8 0 -0.8
v -0.8 1.3 0.8
v -0.8 1.3 -0.8
v 0.8 0 0.8
v 0.8 0 -0.8
v 0.8 1.3 0.8
v 0.8 1.3 -0.8
v -0.8 0 0.8
v -0.8 1.3 0.8
v -0.3 0 0.8
v -0.3 1.3 0.8
v 0.1 0 0.8
v 0.1 1.3 0.8
v 0.8 0 0.8
v 0.8 1.3 0.8
v -0.8 0 -0.8
v -0.8 1.3 -0.8
v -0.3 0 -0.8
v -0.3 1.3 -0.8
v 0.1 0 -0.8
v 0.1 1.3 -0.8
v 0.8 0 -0.8
v 0.8 1.3 -0.8
v -0.8 0 0.8
v -0.3 0 0.8
v 0.1 0 0.8
v 0.8 0 0.8
v -0.8 0 -0.8
v -0.3 0 -0.8
v 0.1 0 -0.8
v 0.8 0 -0.8
v -0.8 1.3 0.8
v -0.3 1.3 0.8
v 0.1 1.3 0.8
v 0.8 1.3 0.8
v 0 1.3 0.6
v 0.1 1.3 0.6
v -0.4 1.3 0.5
v -0.3 1.3 0.5
v -0.1 1.3 0.2
v 0 1.3 0.2
v -0.1 1.3 -0.5
v 0 1.3 -0.5
v -0.4 1.3 -0.6
v -0.3 1.3 -0.6
v 0 1.3 -0.6
v 0.1 1.3 -0.6
v -0.8 1.3 -0.8
v -0.3 1.3 -0.8
v 0.1 1.3 -0.8
v 0.8 1.3 -0.8

# faces
f 3/3/1 2/3/1 1/3/1
f 4/3/1 2/3/1 3/3/1
f 5/2/2 6/2/2 7/2/2
f 7/2/2 6/2/2 8/2/2
f 11/3/3 10/3/3 9/3/3
f 12/3/3 10/3/3 11/3/3
f 13/1/3 12/1/3 11/1/3
f 14/1/3 12/1/3 13/1/3
f 15/2/3 14/2/3 13/2/3
f 16/2/3 14/2/3 15/2/3
f 17/3/4 18/3/4 19/3/4
f 19/3/4 18/3/4 20/3/4
f 19/1/4 20/1/4 21/1/4
f 21/1/4 20/1/4 22/1/4
f 21/2/4 22/2/4 23/2/4
f 23/2/4 22/2/4 24/2/4
f 29/3/5 26/3/5 25/3/5
f 30/1/5 27/1/5 26/1/5
f 30/3/5 26/3/5 29/3/5
f 31/2/5 28/2/5 27/2/5
f 31/1/5 27/1/5 30/1/5
f 32/2/5 28/2/5 31/2/5
f 34/1/6 35/1/6 37/1/6
f 35/2/6 36/2/6 38/2/6
f 37/1/6 35/1/6 38/1/6
f 33/3/6 34/3/6 39/3/6
f 34/1/6 37/1/6 40/1/6
f 39/3/6 34/3/6 40/3/6
f 39/1/6 40/1/6 41/1/6
f 40/1/6 37/1/6 41/1/6
f 37/2/6 38/2/6 42/2/6
f 41/1/6 37/1/6 42/1/6
f 39/1/6 41/1/6 43/1/6
f 41/2/6 42/2/6 43/2/6
f 42/2/6 38/2/6 44/2/6
f 43/2/6 42/2/6 44/2/6
f 33/3/6 39/3/6 45/3/6
f 39/1/6 43/1/6 45/1/6
f 43/1/6 44/1/6 45/1/6
f 45/1/6 44/1/6 46/1/6
f 44/2/6 38/2/6 47/2/6
f 46/1/6 44/1/6 47/1/6
f 38/2/6 36/2/6 48/2/6
f 47/2/6 38/2/6 48/2/6
f 45/3/6 46/3/6 49/3/6
f 33/3/6 45/3/6 49/3/6
f 46/1/6 47/1/6 50/1/6
f 49/3/6 46/3/6 50/3/6
f 47/1/6 48/1/6 50/1/6
f 48/2/6 36/2/6 51/2/6
f 50/1/6 48/1/6 51/1/6
f 51/2/6 36/2/6 52/2/6
