# MagicaVoxel @ Ephtracy

# group
o 

# material
mtllib motor boat.mtl
usemtl palette

# normals
vn -1 0 0
vn 1 0 0
vn 0 0 1
vn 0 0 -1
vn 0 -1 0
vn 0 1 0

# texcoords
vt 0.861328 0.5
vt 0.927734 0.5
vt 0.974609 0.5

# verts
v -0.8 0.1 0.2
v -0.8 0.1 -0.1
v -0.8 0.1 -0.2
v -0.8 0.1 -0.3
v -0.8 0.2 0.1
v -0.8 0.2 -0.1
v -0.8 0.2 -0.2
v -0.8 0.3 0.2
v -0.8 0.3 0.1
v -0.8 0.3 -0.2
v -0.8 0.3 -0.3
v -0.7 0 0.1
v -0.7 0 -0.2
v -0.7 0.1 0.1
v -0.7 0.1 -0.1
v -0.7 0.1 -0.2
v -0.7 0.2 0.3
v -0.7 0.2 0.2
v -0.7 0.2 -0.3
v -0.7 0.2 -0.4
v -0.7 0.3 0.3
v -0.7 0.3 0.2
v -0.7 0.3 -0.3
v -0.7 0.3 -0.4
v -0.4 0 0.2
v -0.4 0 0.1
v -0.4 0 -0.2
v -0.4 0 -0.3
v -0.4 0.1 0.3
v -0.4 0.1 0.2
v -0.4 0.1 0.1
v -0.4 0.1 -0.2
v -0.4 0.1 -0.3
v -0.4 0.1 -0.4
v -0.4 0.2 0.4
v -0.4 0.2 0.3
v -0.4 0.2 0.2
v -0.4 0.2 -0.3
v -0.4 0.2 -0.4
v -0.4 0.2 -0.5
v -0.4 0.3 0.4
v -0.4 0.3 0.3
v -0.4 0.3 -0.4
v -0.4 0.3 -0.5
v 0.1 0.1 0.2
v 0.1 0.1 0.1
v 0.1 0.1 -0.2
v 0.1 0.1 -0.3
v 0.1 0.2 0.3
v 0.1 0.2 0.2
v 0.1 0.2 0.1
v 0.1 0.2 -0.2
v 0.1 0.2 -0.3
v 0.1 0.2 -0.4
v 0.1 0.3 0.3
v 0.1 0.3 0.2
v 0.1 0.3 -0.3
v 0.1 0.3 -0.4
v 0.4 0.1 0.1
v 0.4 0.1 0
v 0.4 0.1 -0.1
v 0.4 0.1 -0.2
v 0.4 0.2 0.2
v 0.4 0.2 0.1
v 0.4 0.2 0
v 0.4 0.2 -0.1
v 0.4 0.2 -0.2
v 0.4 0.2 -0.3
v 0.4 0.3 0.2
v 0.4 0.3 0.1
v 0.4 0.3 -0.2
v 0.4 0.3 -0.3
v 0.6 0.1 0
v 0.6 0.1 -0.1
v 0.6 0.2 0.1
v 0.6 0.2 0
v 0.6 0.2 -0.1
v 0.6 0.2 -0.2
v 0.6 0.3 0.1
v 0.6 0.3 0
v 0.6 0.3 -0.1
v 0.6 0.3 -0.2
v 0.8 0.2 0
v 0.8 0.2 -0.1
v 0.8 0.3 0
v 0.8 0.3 -0.1
v -0.7 0.1 0.1
v -0.7 0.1 -0.1
v -0.7 0.2 0.2
v -0.7 0.2 0.1
v -0.7 0.2 -0.1
v -0.7 0.2 -0.2
v -0.7 0.2 -0.3
v -0.7 0.3 0.2
v -0.7 0.3 0.1
v -0.7 0.3 -0.2
v -0.7 0.3 -0.3
v -0.6 0.1 -0.1
v -0.6 0.1 -0.2
v -0.6 0.2 -0.1
v -0.6 0.2 -0.2
v -0.4 0.1 0.2
v -0.4 0.1 0.1
v -0.4 0.1 -0.2
v -0.4 0.1 -0.3
v -0.4 0.2 0.3
v -0.4 0.2 0.2
v -0.4 0.2 0.1
v -0.4 0.2 -0.2
v -0.4 0.2 -0.3
v -0.4 0.2 -0.4
v -0.4 0.3 0.3
v -0.4 0.3 0.2
v -0.4 0.3 -0.3
v -0.4 0.3 -0.4
v 0.1 0 0.2
v 0.1 0 0.1
v 0.1 0 -0.2
v 0.1 0 -0.3
v 0.1 0.1 0.3
v 0.1 0.1 0.2
v 0.1 0.1 0.1
v 0.1 0.1 -0.2
v 0.1 0.1 -0.3
v 0.1 0.1 -0.4
v 0.1 0.2 0.4
v 0.1 0.2 0.3
v 0.1 0.2 0.2
v 0.1 0.2 -0.3
v 0.1 0.2 -0.4
v 0.1 0.2 -0.5
v 0.1 0.3 0.4
v 0.1 0.3 0.3
v 0.1 0.3 -0.4
v 0.1 0.3 -0.5
v 0.4 0 0.1
v 0.4 0 0
v 0.4 0 -0.1
v 0.4 0 -0.2
v 0.4 0.1 0.2
v 0.4 0.1 0.1
v 0.4 0.1 0
v 0.4 0.1 -0.1
v 0.4 0.1 -0.2
v 0.4 0.1 -0.3
v 0.4 0.2 0.3
v 0.4 0.2 0.2
v 0.4 0.2 0.1
v 0.4 0.2 -0.2
v 0.4 0.2 -0.3
v 0.4 0.2 -0.4
v 0.4 0.3 0.3
v 0.4 0.3 0.2
v 0.4 0.3 -0.3
v 0.4 0.3 -0.4
v 0.6 0 0
v 0.6 0 -0.1
v 0.6 0.1 0.1
v 0.6 0.1 0
v 0.6 0.1 -0.1
v 0.6 0.1 -0.2
v 0.6 0.2 0.2
v 0.6 0.2 0.1
v 0.6 0.2 0
v 0.6 0.2 -0.1
v 0.6 0.2 -0.2
v 0.6 0.2 -0.3
v 0.6 0.3 0.2
v 0.6 0.3 0.1
v 0.6 0.3 -0.2
v 0.6 0.3 -0.3
v 0.8 0.1 0
v 0.8 0.1 -0.1
v 0.8 0.2 0.1
v 0.8 0.2 0
v 0.8 0.2 -0.1
v 0.8 0.2 -0.2
v 0.8 0.3 0.1
v 0.8 0.3 0
v 0.8 0.3 -0.1
v 0.8 0.3 -0.2
v 0.9 0.2 0
v 0.9 0.2 -0.1
v 0.9 0.3 0
v 0.9 0.3 -0.1
v -0.4 0.2 0.4
v -0.4 0.3 0.4
v 0.1 0.2 0.4
v 0.1 0.3 0.4
v -0.7 0.2 0.3
v -0.7 0.3 0.3
v -0.4 0.1 0.3
v -0.4 0.2 0.3
v -0.4 0.3 0.3
v 0.1 0.1 0.3
v 0.1 0.2 0.3
v 0.1 0.3 0.3
v 0.4 0.2 0.3
v 0.4 0.3 0.3
v -0.8 0.1 0.2
v -0.8 0.3 0.2
v -0.7 0.1 0.2
v -0.7 0.2 0.2
v -0.7 0.3 0.2
v -0.4 0 0.2
v -0.4 0.1 0.2
v -0.4 0.2 0.2
v 0.1 0 0.2
v 0.1 0.1 0.2
v 0.1 0.2 0.2
v 0.4 0.1 0.2
v 0.4 0.2 0.2
v 0.4 0.3 0.2
v 0.6 0.2 0.2
v 0.6 0.3 0.2
v -0.7 0 0.1
v -0.7 0.1 0.1
v -0.4 0 0.1
v -0.4 0.1 0.1
v 0.1 0 0.1
v 0.1 0.1 0.1
v 0.4 0 0.1
v 0.4 0.1 0.1
v 0.4 0.2 0.1
v 0.6 0.1 0.1
v 0.6 0.2 0.1
v 0.6 0.3 0.1
v 0.8 0.2 0.1
v 0.8 0.3 0.1
v 0.4 0 0
v 0.4 0.1 0
v 0.6 0 0
v 0.6 0.1 0
v 0.6 0.2 0
v 0.8 0.1 0
v 0.8 0.2 0
v 0.8 0.3 0
v 0.9 0.2 0
v 0.9 0.3 0
v -0.7 0.1 -0.1
v -0.7 0.2 -0.1
v -0.6 0.1 -0.1
v -0.6 0.2 -0.1
v 0.4 0.1 -0.1
v 0.4 0.2 -0.1
v 0.6 0.1 -0.1
v 0.6 0.2 -0.1
v 0.6 0.3 -0.1
v 0.8 0.2 -0.1
v 0.8 0.3 -0.1
v -0.8 0.2 -0.2
v -0.8 0.3 -0.2
v -0.7 0.2 -0.2
v -0.7 0.3 -0.2
v -0.6 0.1 -0.2
v -0.6 0.2 -0.2
v -0.4 0.1 -0.2
v -0.4 0.2 -0.2
v 0.1 0.1 -0.2
v 0.1 0.2 -0.2
v 0.4 0.1 -0.2
v 0.4 0.2 -0.2
v 0.4 0.3 -0.2
v 0.6 0.2 -0.2
v 0.6 0.3 -0.2
v -0.7 0.2 -0.3
v -0.7 0.3 -0.3
v -0.4 0.1 -0.3
v -0.4 0.2 -0.3
v -0.4 0.3 -0.3
v 0.1 0.1 -0.3
v 0.1 0.2 -0.3
v 0.1 0.3 -0.3
v 0.4 0.2 -0.3
v 0.4 0.3 -0.3
v -0.4 0.2 -0.4
v -0.4 0.3 -0.4
v 0.1 0.2 -0.4
v 0.1 0.3 -0.4
v -0.4 0.2 0.3
v -0.4 0.3 0.3
v 0.1 0.2 0.3
v 0.1 0.3 0.3
v -0.7 0.2 0.2
v -0.7 0.3 0.2
v -0.4 0.1 0.2
v -0.4 0.2 0.2
v -0.4 0.3 0.2
v 0.1 0.1 0.2
v 0.1 0.2 0.2
v 0.1 0.3 0.2
v 0.4 0.2 0.2
v 0.4 0.3 0.2
v -0.8 0.2 0.1
v -0.8 0.3 0.1
v -0.7 0.1 0.1
v -0.7 0.2 0.1
v -0.7 0.3 0.1
v -0.4 0.1 0.1
v -0.4 0.2 0.1
v 0.1 0.1 0.1
v 0.1 0.2 0.1
v 0.4 0.1 0.1
v 0.4 0.2 0.1
v 0.4 0.3 0.1
v 0.6 0.2 0.1
v 0.6 0.3 0.1
v 0.4 0.1 0
v 0.4 0.2 0
v 0.6 0.1 0
v 0.6 0.2 0
v 0.6 0.3 0
v 0.8 0.2 0
v 0.8 0.3 0
v 0.4 0 -0.1
v 0.4 0.1 -0.1
v 0.6 0 -0.1
v 0.6 0.1 -0.1
v 0.6 0.2 -0.1
v 0.8 0.1 -0.1
v 0.8 0.2 -0.1
v 0.8 0.3 -0.1
v 0.9 0.2 -0.1
v 0.9 0.3 -0.1
v -0.7 0 -0.2
v -0.7 0.1 -0.2
v -0.4 0 -0.2
v -0.4 0.1 -0.2
v 0.1 0 -0.2
v 0.1 0.1 -0.2
v 0.4 0 -0.2
v 0.4 0.1 -0.2
v 0.4 0.2 -0.2
v 0.6 0.1 -0.2
v 0.6 0.2 -0.2
v 0.6 0.3 -0.2
v 0.8 0.2 -0.2
v 0.8 0.3 -0.2
v -0.8 0.1 -0.3
v -0.8 0.3 -0.3
v -0.7 0.1 -0.3
v -0.7 0.2 -0.3
v -0.7 0.3 -0.3
v -0.4 0 -0.3
v -0.4 0.1 -0.3
v -0.4 0.2 -0.3
v 0.1 0 -0.3
v 0.1 0.1 -0.3
v 0.1 0.2 -0.3
v 0.4 0.1 -0.3
v 0.4 0.2 -0.3
v 0.4 0.3 -0.3
v 0.6 0.2 -0.3
v 0.6 0.3 -0.3
v -0.7 0.2 -0.4
v -0.7 0.3 -0.4
v -0.4 0.1 -0.4
v -0.4 0.2 -0.4
v -0.4 0.3 -0.4
v 0.1 0.1 -0.4
v 0.1 0.2 -0.4
v 0.1 0.3 -0.4
v 0.4 0.2 -0.4
v 0.4 0.3 -0.4
v -0.4 0.2 -0.5
v -0.4 0.3 -0.5
v 0.1 0.2 -0.5
v 0.1 0.3 -0.5
v -0.4 0 0.2
v 0.1 0 0.2
v -0.7 0 0.1
v -0.4 0 0.1
v 0.1 0 0.1
v 0.4 0 0.1
v 0.4 0 0
v 0.6 0 0
v 0.4 0 -0.1
v 0.6 0 -0.1
v -0.7 0 -0.2
v -0.4 0 -0.2
v 0.1 0 -0.2
v 0.4 0 -0.2
v -0.4 0 -0.3
v 0.1 0 -0.3
v -0.4 0.1 0.3
v 0.1 0.1 0.3
v -0.8 0.1 0.2
v -0.7 0.1 0.2
v -0.4 0.1 0.2
v 0.1 0.1 0.2
v 0.4 0.1 0.2
v -0.7 0.1 0.1
v -0.4 0.1 0.1
v 0.1 0.1 0.1
v 0.4 0.1 0.1
v 0.6 0.1 0.1
v 0.4 0.1 0
v 0.6 0.1 0
v 0.8 0.1 0
v -0.8 0.1 -0.1
v -0.7 0.1 -0.1
v 0.4 0.1 -0.1
v 0.6 0.1 -0.1
v 0.8 0.1 -0.1
v -0.8 0.1 -0.2
v -0.7 0.1 -0.2
v -0.4 0.1 -0.2
v 0.1 0.1 -0.2
v 0.4 0.1 -0.2
v 0.6 0.1 -0.2
v -0.8 0.1 -0.3
v -0.7 0.1 -0.3
v -0.4 0.1 -0.3
v 0.1 0.1 -0.3
v 0.4 0.1 -0.3
v -0.4 0.1 -0.4
v 0.1 0.1 -0.4
v -0.4 0.2 0.4
v 0.1 0.2 0.4
v -0.7 0.2 0.3
v -0.4 0.2 0.3
v 0.1 0.2 0.3
v 0.4 0.2 0.3
v -0.7 0.2 0.2
v -0.4 0.2 0.2
v 0.1 0.2 0.2
v 0.4 0.2 0.2
v 0.6 0.2 0.2
v 0.4 0.2 0.1
v 0.6 0.2 0.1
v 0.8 0.2 0.1
v 0.6 0.2 0
v 0.8 0.2 0
v 0.9 0.2 0
v 0.6 0.2 -0.1
v 0.8 0.2 -0.1
v 0.9 0.2 -0.1
v 0.4 0.2 -0.2
v 0.6 0.2 -0.2
v 0.8 0.2 -0.2
v -0.7 0.2 -0.3
v -0.4 0.2 -0.3
v 0.1 0.2 -0.3
v 0.4 0.2 -0.3
v 0.6 0.2 -0.3
v -0.7 0.2 -0.4
v -0.4 0.2 -0.4
v 0.1 0.2 -0.4
v 0.4 0.2 -0.4
v -0.4 0.2 -0.5
v 0.1 0.2 -0.5
v -0.4 0.1 0.2
v 0.1 0.1 0.2
v -0.7 0.1 0.1
v -0.4 0.1 0.1
v 0.1 0.1 0.1
v 0.4 0.1 0.1
v 0.4 0.1 0
v 0.6 0.1 0
v -0.7 0.1 -0.1
v -0.6 0.1 -0.1
v 0.4 0.1 -0.1
v 0.6 0.1 -0.1
v -0.6 0.1 -0.2
v -0.4 0.1 -0.2
v 0.1 0.1 -0.2
v 0.4 0.1 -0.2
v -0.4 0.1 -0.3
v 0.1 0.1 -0.3
v -0.4 0.2 0.3
v 0.1 0.2 0.3
v -0.7 0.2 0.2
v -0.4 0.2 0.2
v 0.1 0.2 0.2
v 0.4 0.2 0.2
v -0.8 0.2 0.1
v -0.7 0.2 0.1
v -0.4 0.2 0.1
v 0.1 0.2 0.1
v 0.4 0.2 0.1
v 0.6 0.2 0.1
v 0.4 0.2 0
v 0.6 0.2 0
v 0.8 0.2 0
v -0.8 0.2 -0.1
v -0.7 0.2 -0.1
v -0.6 0.2 -0.1
v 0.4 0.2 -0.1
v 0.6 0.2 -0.1
v 0.8 0.2 -0.1
v -0.8 0.2 -0.2
v -0.7 0.2 -0.2
v -0.6 0.2 -0.2
v -0.4 0.2 -0.2
v 0.1 0.2 -0.2
v 0.4 0.2 -0.2
v 0.6 0.2 -0.2
v -0.7 0.2 -0.3
v -0.4 0.2 -0.3
v 0.1 0.2 -0.3
v 0.4 0.2 -0.3
v -0.4 0.2 -0.4
v 0.1 0.2 -0.4
v -0.4 0.3 0.4
v 0.1 0.3 0.4
v -0.7 0.3 0.3
v -0.4 0.3 0.3
v 0.1 0.3 0.3
v 0.4 0.3 0.3
v -0.8 0.3 0.2
v -0.7 0.3 0.2
v -0.4 0.3 0.2
v 0.1 0.3 0.2
v 0.4 0.3 0.2
v 0.6 0.3 0.2
v -0.8 0.3 0.1
v -0.7 0.3 0.1
v 0.4 0.3 0.1
v 0.6 0.3 0.1
v 0.8 0.3 0.1
v 0.6 0.3 0
v 0.8 0.3 0
v 0.9 0.3 0
v 0.6 0.3 -0.1
v 0.8 0.3 -0.1
v 0.9 0.3 -0.1
v -0.8 0.3 -0.2
v -0.7 0.3 -0.2
v 0.4 0.3 -0.2
v 0.6 0.3 -0.2
v 0.8 0.3 -0.2
v -0.8 0.3 -0.3
v -0.7 0.3 -0.3
v -0.4 0.3 -0.3
v 0.1 0.3 -0.3
v 0.4 0.3 -0.3
v 0.6 0.3 -0.3
v -0.7 0.3 -0.4
v -0.4 0.3 -0.4
v 0.1 0.3 -0.4
v 0.4 0.3 -0.4
v -0.4 0.3 -0.5
v 0.1 0.3 -0.5

# faces
f 5/3/1 2/3/1 1/3/1
f 6/1/1 3/1/1 2/1/1
f 6/3/1 2/3/1 5/3/1
f 7/3/1 4/3/1 3/3/1
f 7/1/1 3/1/1 6/1/1
f 8/3/1 5/3/1 1/3/1
f 9/3/1 5/3/1 8/3/1
f 10/3/1 4/3/1 7/3/1
f 11/3/1 4/3/1 10/3/1
f 14/2/1 13/2/1 12/2/1
f 15/2/1 13/2/1 14/2/1
f 16/2/1 13/2/1 15/2/1
f 21/3/1 18/3/1 17/3/1
f 22/3/1 18/3/1 21/3/1
f 23/3/1 20/3/1 19/3/1
f 24/3/1 20/3/1 23/3/1
f 30/2/1 26/2/1 25/2/1
f 31/2/1 26/2/1 30/2/1
f 32/2/1 28/2/1 27/2/1
f 33/2/1 28/2/1 32/2/1
f 36/2/1 30/2/1 29/2/1
f 37/2/1 30/2/1 36/2/1
f 38/2/1 34/2/1 33/2/1
f 39/2/1 34/2/1 38/2/1
f 41/3/1 36/3/1 35/3/1
f 42/3/1 36/3/1 41/3/1
f 43/3/1 40/3/1 39/3/1
f 44/3/1 40/3/1 43/3/1
f 50/2/1 46/2/1 45/2/1
f 51/2/1 46/2/1 50/2/1
f 52/2/1 48/2/1 47/2/1
f 53/2/1 48/2/1 52/2/1
f 55/3/1 50/3/1 49/3/1
f 56/3/1 50/3/1 55/3/1
f 57/3/1 54/3/1 53/3/1
f 58/3/1 54/3/1 57/3/1
f 64/2/1 60/2/1 59/2/1
f 65/2/1 60/2/1 64/2/1
f 66/2/1 62/2/1 61/2/1
f 67/2/1 62/2/1 66/2/1
f 69/3/1 64/3/1 63/3/1
f 70/3/1 64/3/1 69/3/1
f 71/3/1 68/3/1 67/3/1
f 72/3/1 68/3/1 71/3/1
f 76/2/1 74/2/1 73/2/1
f 77/2/1 74/2/1 76/2/1
f 79/3/1 76/3/1 75/3/1
f 80/3/1 76/3/1 79/3/1
f 81/3/1 78/3/1 77/3/1
f 82/3/1 78/3/1 81/3/1
f 85/3/1 84/3/1 83/3/1
f 86/3/1 84/3/1 85/3/1
f 87/3/2 88/3/2 90/3/2
f 90/3/2 88/3/2 91/3/2
f 89/3/2 90/3/2 94/3/2
f 94/3/2 90/3/2 95/3/2
f 92/3/2 93/3/2 96/3/2
f 96/3/2 93/3/2 97/3/2
f 98/1/2 99/1/2 100/1/2
f 100/1/2 99/1/2 101/1/2
f 102/2/2 103/2/2 107/2/2
f 107/2/2 103/2/2 108/2/2
f 104/2/2 105/2/2 109/2/2
f 109/2/2 105/2/2 110/2/2
f 106/3/2 107/3/2 112/3/2
f 112/3/2 107/3/2 113/3/2
f 110/3/2 111/3/2 114/3/2
f 114/3/2 111/3/2 115/3/2
f 116/2/2 117/2/2 121/2/2
f 121/2/2 117/2/2 122/2/2
f 118/2/2 119/2/2 123/2/2
f 123/2/2 119/2/2 124/2/2
f 120/2/2 121/2/2 127/2/2
f 127/2/2 121/2/2 128/2/2
f 124/2/2 125/2/2 129/2/2
f 129/2/2 125/2/2 130/2/2
f 126/3/2 127/3/2 132/3/2
f 132/3/2 127/3/2 133/3/2
f 130/3/2 131/3/2 134/3/2
f 134/3/2 131/3/2 135/3/2
f 136/2/2 137/2/2 141/2/2
f 141/2/2 137/2/2 142/2/2
f 138/2/2 139/2/2 143/2/2
f 143/2/2 139/2/2 144/2/2
f 140/2/2 141/2/2 147/2/2
f 147/2/2 141/2/2 148/2/2
f 144/2/2 145/2/2 149/2/2
f 149/2/2 145/2/2 150/2/2
f 146/3/2 147/3/2 152/3/2
f 152/3/2 147/3/2 153/3/2
f 150/3/2 151/3/2 154/3/2
f 154/3/2 151/3/2 155/3/2
f 156/2/2 157/2/2 159/2/2
f 159/2/2 157/2/2 160/2/2
f 158/2/2 159/2/2 163/2/2
f 163/2/2 159/2/2 164/2/2
f 160/2/2 161/2/2 165/2/2
f 165/2/2 161/2/2 166/2/2
f 162/3/2 163/3/2 168/3/2
f 168/3/2 163/3/2 169/3/2
f 166/3/2 167/3/2 170/3/2
f 170/3/2 167/3/2 171/3/2
f 172/2/2 173/2/2 175/2/2
f 175/2/2 173/2/2 176/2/2
f 174/3/2 175/3/2 178/3/2
f 178/3/2 175/3/2 179/3/2
f 176/3/2 177/3/2 180/3/2
f 180/3/2 177/3/2 181/3/2
f 182/3/2 183/3/2 184/3/2
f 184/3/2 183/3/2 185/3/2
f 188/3/3 187/3/3 186/3/3
f 189/3/3 187/3/3 188/3/3
f 193/3/3 191/3/3 190/3/3
f 194/3/3 191/3/3 193/3/3
f 195/2/3 193/2/3 192/2/3
f 196/2/3 193/2/3 195/2/3
f 198/3/3 197/3/3 196/3/3
f 199/3/3 197/3/3 198/3/3
f 202/3/3 201/3/3 200/3/3
f 203/3/3 201/3/3 202/3/3
f 204/3/3 201/3/3 203/3/3
f 206/2/3 203/2/3 202/2/3
f 207/2/3 203/2/3 206/2/3
f 208/2/3 206/2/3 205/2/3
f 209/2/3 206/2/3 208/2/3
f 211/2/3 210/2/3 209/2/3
f 212/2/3 210/2/3 211/2/3
f 214/3/3 213/3/3 212/3/3
f 215/3/3 213/3/3 214/3/3
f 218/2/3 217/2/3 216/2/3
f 219/2/3 217/2/3 218/2/3
f 222/2/3 221/2/3 220/2/3
f 223/2/3 221/2/3 222/2/3
f 225/2/3 224/2/3 223/2/3
f 226/2/3 224/2/3 225/2/3
f 228/3/3 227/3/3 226/3/3
f 229/3/3 227/3/3 228/3/3
f 232/2/3 231/2/3 230/2/3
f 233/2/3 231/2/3 232/2/3
f 235/2/3 234/2/3 233/2/3
f 236/2/3 234/2/3 235/2/3
f 238/3/3 237/3/3 236/3/3
f 239/3/3 237/3/3 238/3/3
f 242/1/3 241/1/3 240/1/3
f 243/1/3 241/1/3 242/1/3
f 246/2/3 245/2/3 244/2/3
f 247/2/3 245/2/3 246/2/3
f 249/3/3 248/3/3 247/3/3
f 250/3/3 248/3/3 249/3/3
f 253/3/3 252/3/3 251/3/3
f 254/3/3 252/3/3 253/3/3
f 257/2/3 256/2/3 255/2/3
f 258/2/3 256/2/3 257/2/3
f 261/2/3 260/2/3 259/2/3
f 262/2/3 260/2/3 261/2/3
f 264/3/3 263/3/3 262/3/3
f 265/3/3 263/3/3 264/3/3
f 269/3/3 267/3/3 266/3/3
f 270/3/3 267/3/3 269/3/3
f 271/2/3 269/2/3 268/2/3
f 272/2/3 269/2/3 271/2/3
f 274/3/3 273/3/3 272/3/3
f 275/3/3 273/3/3 274/3/3
f 278/3/3 277/3/3 276/3/3
f 279/3/3 277/3/3 278/3/3
f 280/3/4 281/3/4 282/3/4
f 282/3/4 281/3/4 283/3/4
f 284/3/4 285/3/4 287/3/4
f 287/3/4 285/3/4 288/3/4
f 286/2/4 287/2/4 289/2/4
f 289/2/4 287/2/4 290/2/4
f 290/3/4 291/3/4 292/3/4
f 292/3/4 291/3/4 293/3/4
f 294/3/4 295/3/4 297/3/4
f 297/3/4 295/3/4 298/3/4
f 296/2/4 297/2/4 299/2/4
f 299/2/4 297/2/4 300/2/4
f 301/2/4 302/2/4 303/2/4
f 303/2/4 302/2/4 304/2/4
f 304/3/4 305/3/4 306/3/4
f 306/3/4 305/3/4 307/3/4
f 308/2/4 309/2/4 310/2/4
f 310/2/4 309/2/4 311/2/4
f 311/3/4 312/3/4 313/3/4
f 313/3/4 312/3/4 314/3/4
f 315/2/4 316/2/4 317/2/4
f 317/2/4 316/2/4 318/2/4
f 318/2/4 319/2/4 320/2/4
f 320/2/4 319/2/4 321/2/4
f 321/3/4 322/3/4 323/3/4
f 323/3/4 322/3/4 324/3/4
f 325/2/4 326/2/4 327/2/4
f 327/2/4 326/2/4 328/2/4
f 329/2/4 330/2/4 331/2/4
f 331/2/4 330/2/4 332/2/4
f 332/2/4 333/2/4 334/2/4
f 334/2/4 333/2/4 335/2/4
f 335/3/4 336/3/4 337/3/4
f 337/3/4 336/3/4 338/3/4
f 339/3/4 340/3/4 341/3/4
f 341/3/4 340/3/4 342/3/4
f 342/3/4 340/3/4 343/3/4
f 341/2/4 342/2/4 345/2/4
f 345/2/4 342/2/4 346/2/4
f 344/2/4 345/2/4 347/2/4
f 347/2/4 345/2/4 348/2/4
f 348/2/4 349/2/4 350/2/4
f 350/2/4 349/2/4 351/2/4
f 351/3/4 352/3/4 353/3/4
f 353/3/4 352/3/4 354/3/4
f 355/3/4 356/3/4 358/3/4
f 358/3/4 356/3/4 359/3/4
f 357/2/4 358/2/4 360/2/4
f 360/2/4 358/2/4 361/2/4
f 361/3/4 362/3/4 363/3/4
f 363/3/4 362/3/4 364/3/4
f 365/3/4 366/3/4 367/3/4
f 367/3/4 366/3/4 368/3/4
f 372/2/5 370/2/5 369/2/5
f 373/2/5 370/2/5 372/2/5
f 375/2/5 372/2/5 371/2/5
f 375/2/5 374/2/5 373/2/5
f 375/2/5 373/2/5 372/2/5
f 377/2/5 375/2/5 371/2/5
f 377/2/5 376/2/5 375/2/5
f 378/2/5 376/2/5 377/2/5
f 379/2/5 377/2/5 371/2/5
f 380/2/5 377/2/5 379/2/5
f 381/2/5 377/2/5 380/2/5
f 382/2/5 377/2/5 381/2/5
f 383/2/5 381/2/5 380/2/5
f 384/2/5 381/2/5 383/2/5
f 389/2/5 386/2/5 385/2/5
f 390/2/5 386/2/5 389/2/5
f 392/3/5 388/3/5 387/3/5
f 392/2/5 389/2/5 388/2/5
f 393/2/5 389/2/5 392/2/5
f 394/2/5 391/2/5 390/2/5
f 395/2/5 391/2/5 394/2/5
f 397/2/5 396/2/5 395/2/5
f 398/2/5 396/2/5 397/2/5
f 400/3/5 392/3/5 387/3/5
f 401/3/5 392/3/5 400/3/5
f 403/2/5 399/2/5 398/2/5
f 404/2/5 399/2/5 403/2/5
f 405/1/5 401/1/5 400/1/5
f 406/1/5 401/1/5 405/1/5
f 409/2/5 403/2/5 402/2/5
f 410/2/5 403/2/5 409/2/5
f 411/3/5 406/3/5 405/3/5
f 412/2/5 407/2/5 406/2/5
f 412/3/5 406/3/5 411/3/5
f 413/2/5 407/2/5 412/2/5
f 414/2/5 409/2/5 408/2/5
f 415/2/5 409/2/5 414/2/5
f 416/2/5 414/2/5 413/2/5
f 417/2/5 414/2/5 416/2/5
f 421/3/5 419/3/5 418/3/5
f 422/3/5 419/3/5 421/3/5
f 424/3/5 421/3/5 420/3/5
f 425/3/5 421/3/5 424/3/5
f 426/3/5 423/3/5 422/3/5
f 427/3/5 423/3/5 426/3/5
f 429/3/5 428/3/5 427/3/5
f 430/3/5 428/3/5 429/3/5
f 432/3/5 431/3/5 430/3/5
f 433/3/5 431/3/5 432/3/5
f 436/3/5 434/3/5 433/3/5
f 437/3/5 434/3/5 436/3/5
f 439/3/5 436/3/5 435/3/5
f 440/3/5 436/3/5 439/3/5
f 444/3/5 439/3/5 438/3/5
f 445/3/5 439/3/5 444/3/5
f 446/3/5 442/3/5 441/3/5
f 447/3/5 442/3/5 446/3/5
f 448/3/5 444/3/5 443/3/5
f 449/3/5 444/3/5 448/3/5
f 450/3/5 448/3/5 447/3/5
f 451/3/5 448/3/5 450/3/5
f 452/2/6 453/2/6 455/2/6
f 455/2/6 453/2/6 456/2/6
f 454/2/6 455/2/6 458/2/6
f 456/2/6 457/2/6 458/2/6
f 455/2/6 456/2/6 458/2/6
f 454/2/6 458/2/6 460/2/6
f 458/2/6 459/2/6 460/2/6
f 460/2/6 459/2/6 461/2/6
f 461/2/6 459/2/6 462/2/6
f 462/2/6 459/2/6 463/2/6
f 461/2/6 462/2/6 464/2/6
f 464/2/6 462/2/6 465/2/6
f 465/2/6 462/2/6 466/2/6
f 466/2/6 462/2/6 467/2/6
f 465/2/6 466/2/6 468/2/6
f 468/2/6 466/2/6 469/2/6
f 470/2/6 471/2/6 473/2/6
f 473/2/6 471/2/6 474/2/6
f 472/2/6 473/2/6 477/2/6
f 477/2/6 473/2/6 478/2/6
f 474/2/6 475/2/6 479/2/6
f 479/2/6 475/2/6 480/2/6
f 480/2/6 481/2/6 482/2/6
f 482/2/6 481/2/6 483/2/6
f 476/3/6 477/3/6 485/3/6
f 485/3/6 477/3/6 486/3/6
f 483/2/6 484/2/6 489/2/6
f 489/2/6 484/2/6 490/2/6
f 486/1/6 487/1/6 491/1/6
f 485/1/6 486/1/6 491/1/6
f 491/1/6 487/1/6 492/1/6
f 492/1/6 487/1/6 493/1/6
f 488/2/6 489/2/6 496/2/6
f 496/2/6 489/2/6 497/2/6
f 493/2/6 494/2/6 498/2/6
f 492/2/6 493/2/6 498/2/6
f 498/2/6 494/2/6 499/2/6
f 495/2/6 496/2/6 500/2/6
f 500/2/6 496/2/6 501/2/6
f 499/2/6 500/2/6 502/2/6
f 502/2/6 500/2/6 503/2/6
f 504/3/6 505/3/6 507/3/6
f 507/3/6 505/3/6 508/3/6
f 506/3/6 507/3/6 511/3/6
f 511/3/6 507/3/6 512/3/6
f 508/3/6 509/3/6 513/3/6
f 513/3/6 509/3/6 514/3/6
f 510/3/6 511/3/6 516/3/6
f 516/3/6 511/3/6 517/3/6
f 514/3/6 515/3/6 518/3/6
f 518/3/6 515/3/6 519/3/6
f 519/3/6 520/3/6 521/3/6
f 521/3/6 520/3/6 522/3/6
f 522/3/6 523/3/6 525/3/6
f 525/3/6 523/3/6 526/3/6
f 524/3/6 525/3/6 530/3/6
f 530/3/6 525/3/6 531/3/6
f 527/3/6 528/3/6 532/3/6
f 532/3/6 528/3/6 533/3/6
f 529/3/6 530/3/6 536/3/6
f 536/3/6 530/3/6 537/3/6
f 533/3/6 534/3/6 538/3/6
f 538/3/6 534/3/6 539/3/6
f 535/3/6 536/3/6 540/3/6
f 540/3/6 536/3/6 541/3/6
f 539/3/6 540/3/6 542/3/6
f 542/3/6 540/3/6 543/3/6
