# MagicaVoxel @ Ephtracy

# group
o 

# material
mtllib Bullet_2Lv.mtl
usemtl palette

# normals
vn -1 0 0
vn 1 0 0
vn 0 0 1
vn 0 0 -1
vn 0 -1 0
vn 0 1 0

# texcoords
vt 0.849609 0.5
vt 0.869141 0.5
vt 0.900391 0.5
vt 0.958984 0.5

# verts
v -0.3 0.1 0.1
v -0.3 0.1 -0.1
v -0.3 0.2 0.2
v -0.3 0.2 0.1
v -0.3 0.2 -0.1
v -0.3 0.2 -0.2
v -0.3 0.4 0.2
v -0.3 0.4 0.1
v -0.3 0.4 -0.1
v -0.3 0.4 -0.2
v -0.3 0.5 0.1
v -0.3 0.5 -0.1
v -0.2 0 0.1
v -0.2 0 -0.1
v -0.2 0.1 0.2
v -0.2 0.1 0.1
v -0.2 0.1 -0.1
v -0.2 0.1 -0.2
v -0.2 0.2 0.3
v -0.2 0.2 0.2
v -0.2 0.2 0.1
v -0.2 0.2 -0.1
v -0.2 0.2 -0.2
v -0.2 0.2 -0.3
v -0.2 0.4 0.3
v -0.2 0.4 0.2
v -0.2 0.4 0.1
v -0.2 0.4 -0.1
v -0.2 0.4 -0.2
v -0.2 0.4 -0.3
v -0.2 0.5 0.2
v -0.2 0.5 0.1
v -0.2 0.5 -0.1
v -0.2 0.5 -0.2
v -0.2 0.6 0.1
v -0.2 0.6 -0.1
v -0.2 0.8 0
v -0.2 0.8 -0.1
v -0.2 0.9 0
v -0.2 0.9 -0.1
v -0.1 0 0.2
v -0.1 0 0.1
v -0.1 0 -0.1
v -0.1 0 -0.2
v -0.1 0.1 0.3
v -0.1 0.1 0.2
v -0.1 0.1 0.1
v -0.1 0.1 -0.1
v -0.1 0.1 -0.2
v -0.1 0.1 -0.3
v -0.1 0.2 0.3
v -0.1 0.2 0.2
v -0.1 0.2 -0.2
v -0.1 0.2 -0.3
v -0.1 0.4 0.3
v -0.1 0.4 0.2
v -0.1 0.4 -0.2
v -0.1 0.4 -0.3
v -0.1 0.5 0.3
v -0.1 0.5 0.2
v -0.1 0.5 0.1
v -0.1 0.5 -0.1
v -0.1 0.5 -0.2
v -0.1 0.5 -0.3
v -0.1 0.6 0.2
v -0.1 0.6 0.1
v -0.1 0.6 -0.1
v -0.1 0.6 -0.2
v -0.1 0.7 0
v -0.1 0.7 -0.1
v -0.1 0.8 0
v -0.1 0.8 -0.1
v 0 0.6 0
v 0 0.6 -0.1
v 0 0.7 0
v 0 0.7 -0.1
v 0 0.8 0
v 0 0.8 -0.1
v 0 0.9 0
v 0 0.9 -0.1
v 0.1 0 0.2
v 0.1 0 0.1
v 0.1 0 -0.1
v 0.1 0 -0.2
v 0.1 0.1 0.3
v 0.1 0.1 0.2
v 0.1 0.1 0.1
v 0.1 0.1 -0.1
v 0.1 0.1 -0.2
v 0.1 0.1 -0.3
v 0.1 0.2 0.3
v 0.1 0.2 0.2
v 0.1 0.2 -0.2
v 0.1 0.2 -0.3
v 0.1 0.4 0.3
v 0.1 0.4 0.2
v 0.1 0.4 -0.2
v 0.1 0.4 -0.3
v 0.1 0.5 0.3
v 0.1 0.5 0.2
v 0.1 0.5 0.1
v 0.1 0.5 -0.1
v 0.1 0.5 -0.2
v 0.1 0.5 -0.3
v 0.1 0.6 0.2
v 0.1 0.6 0.1
v 0.1 0.6 0
v 0.1 0.6 -0.1
v 0.1 0.6 -0.2
v 0.1 0.8 0
v 0.1 0.8 -0.1
v 0.2 0 0.1
v 0.2 0 -0.1
v 0.2 0.1 0.2
v 0.2 0.1 0.1
v 0.2 0.1 -0.1
v 0.2 0.1 -0.2
v 0.2 0.2 0.3
v 0.2 0.2 0.2
v 0.2 0.2 0.1
v 0.2 0.2 -0.1
v 0.2 0.2 -0.2
v 0.2 0.2 -0.3
v 0.2 0.4 0.3
v 0.2 0.4 0.2
v 0.2 0.4 0.1
v 0.2 0.4 -0.1
v 0.2 0.4 -0.2
v 0.2 0.4 -0.3
v 0.2 0.5 0.2
v 0.2 0.5 0.1
v 0.2 0.5 -0.1
v 0.2 0.5 -0.2
v 0.2 0.6 0.1
v 0.2 0.6 -0.1
v 0.3 0.1 0.1
v 0.3 0.1 -0.1
v 0.3 0.2 0.2
v 0.3 0.2 0.1
v 0.3 0.2 -0.1
v 0.3 0.2 -0.2
v 0.3 0.4 0.2
v 0.3 0.4 0.1
v 0.3 0.4 -0.1
v 0.3 0.4 -0.2
v 0.3 0.5 0.1
v 0.3 0.5 -0.1
v -0.2 0.2 0.3
v -0.2 0.4 0.3
v -0.1 0.1 0.3
v -0.1 0.2 0.3
v -0.1 0.4 0.3
v -0.1 0.5 0.3
v 0 0.4 0.3
v 0 0.5 0.3
v 0.1 0.1 0.3
v 0.1 0.2 0.3
v 0.1 0.4 0.3
v 0.1 0.5 0.3
v 0.2 0.2 0.3
v 0.2 0.4 0.3
v -0.3 0.2 0.2
v -0.3 0.4 0.2
v -0.2 0.1 0.2
v -0.2 0.2 0.2
v -0.2 0.4 0.2
v -0.2 0.5 0.2
v -0.1 0 0.2
v -0.1 0.1 0.2
v -0.1 0.2 0.2
v -0.1 0.4 0.2
v -0.1 0.5 0.2
v -0.1 0.6 0.2
v 0 0.5 0.2
v 0 0.6 0.2
v 0.1 0 0.2
v 0.1 0.1 0.2
v 0.1 0.2 0.2
v 0.1 0.4 0.2
v 0.1 0.5 0.2
v 0.1 0.6 0.2
v 0.2 0.1 0.2
v 0.2 0.2 0.2
v 0.2 0.4 0.2
v 0.2 0.5 0.2
v 0.3 0.2 0.2
v 0.3 0.4 0.2
v -0.3 0.1 0.1
v -0.3 0.2 0.1
v -0.3 0.4 0.1
v -0.3 0.5 0.1
v -0.2 0 0.1
v -0.2 0.1 0.1
v -0.2 0.2 0.1
v -0.2 0.4 0.1
v -0.2 0.5 0.1
v -0.2 0.6 0.1
v -0.1 0 0.1
v -0.1 0.1 0.1
v -0.1 0.5 0.1
v -0.1 0.6 0.1
v 0.1 0 0.1
v 0.1 0.1 0.1
v 0.1 0.5 0.1
v 0.1 0.6 0.1
v 0.2 0 0.1
v 0.2 0.1 0.1
v 0.2 0.2 0.1
v 0.2 0.4 0.1
v 0.2 0.5 0.1
v 0.2 0.6 0.1
v 0.3 0.1 0.1
v 0.3 0.2 0.1
v 0.3 0.4 0.1
v 0.3 0.5 0.1
v -0.2 0.8 0
v -0.2 0.9 0
v -0.1 0.7 0
v -0.1 0.8 0
v 0 0.6 0
v 0 0.7 0
v 0 0.8 0
v 0 0.9 0
v 0.1 0.6 0
v 0.1 0.8 0
v -0.3 0.1 -0.1
v -0.3 0.2 -0.1
v -0.3 0.4 -0.1
v -0.3 0.5 -0.1
v -0.2 0 -0.1
v -0.2 0.1 -0.1
v -0.2 0.2 -0.1
v -0.2 0.4 -0.1
v -0.2 0.5 -0.1
v -0.2 0.6 -0.1
v -0.2 0.8 -0.1
v -0.2 0.9 -0.1
v -0.1 0 -0.1
v -0.1 0.1 -0.1
v -0.1 0.5 -0.1
v -0.1 0.6 -0.1
v -0.1 0.7 -0.1
v -0.1 0.8 -0.1
v 0 0.6 -0.1
v 0 0.7 -0.1
v 0 0.8 -0.1
v 0 0.9 -0.1
v 0.1 0 -0.1
v 0.1 0.1 -0.1
v 0.1 0.5 -0.1
v 0.1 0.6 -0.1
v 0.1 0.8 -0.1
v 0.2 0 -0.1
v 0.2 0.1 -0.1
v 0.2 0.2 -0.1
v 0.2 0.4 -0.1
v 0.2 0.5 -0.1
v 0.2 0.6 -0.1
v 0.3 0.1 -0.1
v 0.3 0.2 -0.1
v 0.3 0.4 -0.1
v 0.3 0.5 -0.1
v -0.3 0.2 -0.2
v -0.3 0.4 -0.2
v -0.2 0.1 -0.2
v -0.2 0.2 -0.2
v -0.2 0.4 -0.2
v -0.2 0.5 -0.2
v -0.1 0 -0.2
v -0.1 0.1 -0.2
v -0.1 0.2 -0.2
v -0.1 0.4 -0.2
v -0.1 0.5 -0.2
v -0.1 0.6 -0.2
v 0.1 0 -0.2
v 0.1 0.1 -0.2
v 0.1 0.2 -0.2
v 0.1 0.4 -0.2
v 0.1 0.5 -0.2
v 0.1 0.6 -0.2
v 0.2 0.1 -0.2
v 0.2 0.2 -0.2
v 0.2 0.4 -0.2
v 0.2 0.5 -0.2
v 0.3 0.2 -0.2
v 0.3 0.4 -0.2
v -0.2 0.2 -0.3
v -0.2 0.4 -0.3
v -0.1 0.1 -0.3
v -0.1 0.2 -0.3
v -0.1 0.4 -0.3
v -0.1 0.5 -0.3
v 0.1 0.1 -0.3
v 0.1 0.2 -0.3
v 0.1 0.4 -0.3
v 0.1 0.5 -0.3
v 0.2 0.2 -0.3
v 0.2 0.4 -0.3
v -0.1 0 0.2
v 0.1 0 0.2
v -0.2 0 0.1
v -0.1 0 0.1
v 0.1 0 0.1
v 0.2 0 0.1
v -0.2 0 -0.1
v -0.1 0 -0.1
v 0.1 0 -0.1
v 0.2 0 -0.1
v -0.1 0 -0.2
v 0.1 0 -0.2
v -0.1 0.1 0.3
v 0.1 0.1 0.3
v -0.2 0.1 0.2
v -0.1 0.1 0.2
v 0.1 0.1 0.2
v 0.2 0.1 0.2
v -0.3 0.1 0.1
v -0.2 0.1 0.1
v -0.1 0.1 0.1
v 0.1 0.1 0.1
v 0.2 0.1 0.1
v 0.3 0.1 0.1
v -0.3 0.1 -0.1
v -0.2 0.1 -0.1
v -0.1 0.1 -0.1
v 0.1 0.1 -0.1
v 0.2 0.1 -0.1
v 0.3 0.1 -0.1
v -0.2 0.1 -0.2
v -0.1 0.1 -0.2
v 0.1 0.1 -0.2
v 0.2 0.1 -0.2
v -0.1 0.1 -0.3
v 0.1 0.1 -0.3
v -0.2 0.2 0.3
v -0.1 0.2 0.3
v 0.1 0.2 0.3
v 0.2 0.2 0.3
v -0.3 0.2 0.2
v -0.2 0.2 0.2
v -0.1 0.2 0.2
v 0.1 0.2 0.2
v 0.2 0.2 0.2
v 0.3 0.2 0.2
v -0.3 0.2 0.1
v -0.2 0.2 0.1
v 0.2 0.2 0.1
v 0.3 0.2 0.1
v -0.3 0.2 -0.1
v -0.2 0.2 -0.1
v 0.2 0.2 -0.1
v 0.3 0.2 -0.1
v -0.3 0.2 -0.2
v -0.2 0.2 -0.2
v -0.1 0.2 -0.2
v 0.1 0.2 -0.2
v 0.2 0.2 -0.2
v 0.3 0.2 -0.2
v -0.2 0.2 -0.3
v -0.1 0.2 -0.3
v 0.1 0.2 -0.3
v 0.2 0.2 -0.3
v -0.1 0.7 0
v 0 0.7 0
v -0.1 0.7 -0.1
v 0 0.7 -0.1
v -0.2 0.8 0
v -0.1 0.8 0
v -0.2 0.8 -0.1
v -0.1 0.8 -0.1
v -0.2 0.4 0.3
v -0.1 0.4 0.3
v 0.1 0.4 0.3
v 0.2 0.4 0.3
v -0.3 0.4 0.2
v -0.2 0.4 0.2
v -0.1 0.4 0.2
v 0.1 0.4 0.2
v 0.2 0.4 0.2
v 0.3 0.4 0.2
v -0.3 0.4 0.1
v -0.2 0.4 0.1
v 0.2 0.4 0.1
v 0.3 0.4 0.1
v -0.3 0.4 -0.1
v -0.2 0.4 -0.1
v 0.2 0.4 -0.1
v 0.3 0.4 -0.1
v -0.3 0.4 -0.2
v -0.2 0.4 -0.2
v -0.1 0.4 -0.2
v 0.1 0.4 -0.2
v 0.2 0.4 -0.2
v 0.3 0.4 -0.2
v -0.2 0.4 -0.3
v -0.1 0.4 -0.3
v 0.1 0.4 -0.3
v 0.2 0.4 -0.3
v -0.1 0.5 0.3
v 0 0.5 0.3
v 0.1 0.5 0.3
v -0.2 0.5 0.2
v -0.1 0.5 0.2
v 0 0.5 0.2
v 0.1 0.5 0.2
v 0.2 0.5 0.2
v -0.3 0.5 0.1
v -0.2 0.5 0.1
v -0.1 0.5 0.1
v 0.1 0.5 0.1
v 0.2 0.5 0.1
v 0.3 0.5 0.1
v -0.3 0.5 -0.1
v -0.2 0.5 -0.1
v -0.1 0.5 -0.1
v 0.1 0.5 -0.1
v 0.2 0.5 -0.1
v 0.3 0.5 -0.1
v -0.2 0.5 -0.2
v -0.1 0.5 -0.2
v 0.1 0.5 -0.2
v 0.2 0.5 -0.2
v -0.1 0.5 -0.3
v 0.1 0.5 -0.3
v -0.1 0.6 0.2
v 0 0.6 0.2
v 0.1 0.6 0.2
v -0.2 0.6 0.1
v -0.1 0.6 0.1
v 0 0.6 0.1
v 0.1 0.6 0.1
v 0.2 0.6 0.1
v 0 0.6 0
v 0.1 0.6 0
v -0.2 0.6 -0.1
v -0.1 0.6 -0.1
v 0 0.6 -0.1
v 0.1 0.6 -0.1
v 0.2 0.6 -0.1
v -0.1 0.6 -0.2
v 0.1 0.6 -0.2
v 0 0.8 0
v 0.1 0.8 0
v 0 0.8 -0.1
v 0.1 0.8 -0.1
v -0.2 0.9 0
v 0 0.9 0
v -0.2 0.9 -0.1
v 0 0.9 -0.1

# faces
f 4/1/1 2/1/1 1/1/1
f 5/1/1 2/1/1 4/1/1
f 7/1/1 4/1/1 3/1/1
f 7/1/1 6/1/1 5/1/1
f 7/1/1 5/1/1 4/1/1
f 8/1/1 6/1/1 7/1/1
f 9/1/1 6/1/1 8/1/1
f 10/1/1 6/1/1 9/1/1
f 11/1/1 9/1/1 8/1/1
f 12/1/1 9/1/1 11/1/1
f 16/1/1 14/1/1 13/1/1
f 17/1/1 14/1/1 16/1/1
f 20/1/1 16/1/1 15/1/1
f 21/1/1 16/1/1 20/1/1
f 22/1/1 18/1/1 17/1/1
f 23/1/1 18/1/1 22/1/1
f 25/1/1 20/1/1 19/1/1
f 26/1/1 20/1/1 25/1/1
f 29/1/1 24/1/1 23/1/1
f 30/1/1 24/1/1 29/1/1
f 31/4/1 27/4/1 26/4/1
f 32/4/1 27/4/1 31/4/1
f 33/1/1 29/1/1 28/1/1
f 34/1/1 29/1/1 33/1/1
f 35/1/1 33/1/1 32/1/1
f 36/1/1 33/1/1 35/1/1
f 39/3/1 38/3/1 37/3/1
f 40/3/1 38/3/1 39/3/1
f 46/1/1 42/1/1 41/1/1
f 47/1/1 42/1/1 46/1/1
f 48/1/1 44/1/1 43/1/1
f 49/1/1 44/1/1 48/1/1
f 51/1/1 46/1/1 45/1/1
f 52/1/1 46/1/1 51/1/1
f 53/1/1 50/1/1 49/1/1
f 54/1/1 50/1/1 53/1/1
f 59/4/1 56/4/1 55/4/1
f 60/4/1 56/4/1 59/4/1
f 63/1/1 58/1/1 57/1/1
f 64/1/1 58/1/1 63/1/1
f 65/4/1 61/4/1 60/4/1
f 66/4/1 61/4/1 65/4/1
f 67/1/1 63/1/1 62/1/1
f 68/1/1 63/1/1 67/1/1
f 71/3/1 70/3/1 69/3/1
f 72/3/1 70/3/1 71/3/1
f 75/2/1 74/2/1 73/2/1
f 76/2/1 74/2/1 75/2/1
f 77/3/2 78/3/2 79/3/2
f 79/3/2 78/3/2 80/3/2
f 81/1/2 82/1/2 86/1/2
f 86/1/2 82/1/2 87/1/2
f 83/1/2 84/1/2 88/1/2
f 88/1/2 84/1/2 89/1/2
f 85/1/2 86/1/2 91/1/2
f 91/1/2 86/1/2 92/1/2
f 89/1/2 90/1/2 93/1/2
f 93/1/2 90/1/2 94/1/2
f 95/1/2 96/1/2 99/1/2
f 99/1/2 96/1/2 100/1/2
f 97/1/2 98/1/2 103/1/2
f 103/1/2 98/1/2 104/1/2
f 100/1/2 101/1/2 105/1/2
f 105/1/2 101/1/2 106/1/2
f 102/1/2 103/1/2 108/1/2
f 108/1/2 103/1/2 109/1/2
f 107/2/2 108/2/2 110/2/2
f 110/2/2 108/2/2 111/2/2
f 112/1/2 113/1/2 115/1/2
f 115/1/2 113/1/2 116/1/2
f 114/1/2 115/1/2 119/1/2
f 119/1/2 115/1/2 120/1/2
f 116/1/2 117/1/2 121/1/2
f 121/1/2 117/1/2 122/1/2
f 118/1/2 119/1/2 124/1/2
f 124/1/2 119/1/2 125/1/2
f 122/1/2 123/1/2 128/1/2
f 128/1/2 123/1/2 129/1/2
f 125/1/2 126/1/2 130/1/2
f 130/1/2 126/1/2 131/1/2
f 127/1/2 128/1/2 132/1/2
f 132/1/2 128/1/2 133/1/2
f 131/1/2 132/1/2 134/1/2
f 134/1/2 132/1/2 135/1/2
f 136/1/2 137/1/2 139/1/2
f 139/1/2 137/1/2 140/1/2
f 138/1/2 139/1/2 142/1/2
f 140/1/2 141/1/2 142/1/2
f 139/1/2 140/1/2 142/1/2
f 142/1/2 141/1/2 143/1/2
f 143/1/2 141/1/2 144/1/2
f 144/1/2 141/1/2 145/1/2
f 143/1/2 144/1/2 146/1/2
f 146/1/2 144/1/2 147/1/2
f 151/1/3 149/1/3 148/1/3
f 152/1/3 149/1/3 151/1/3
f 154/1/3 151/1/3 150/1/3
f 154/4/3 153/4/3 152/4/3
f 154/1/3 152/1/3 151/1/3
f 155/4/3 153/4/3 154/4/3
f 156/1/3 154/1/3 150/1/3
f 156/1/3 155/1/3 154/1/3
f 157/1/3 155/1/3 156/1/3
f 158/1/3 155/1/3 157/1/3
f 159/1/3 155/1/3 158/1/3
f 160/1/3 158/1/3 157/1/3
f 161/1/3 158/1/3 160/1/3
f 165/1/3 163/1/3 162/1/3
f 166/1/3 163/1/3 165/1/3
f 169/1/3 165/1/3 164/1/3
f 170/1/3 165/1/3 169/1/3
f 171/4/3 167/4/3 166/4/3
f 172/4/3 167/4/3 171/4/3
f 174/4/3 173/4/3 172/4/3
f 175/4/3 173/4/3 174/4/3
f 176/1/3 169/1/3 168/1/3
f 177/1/3 169/1/3 176/1/3
f 180/1/3 175/1/3 174/1/3
f 181/1/3 175/1/3 180/1/3
f 182/1/3 178/1/3 177/1/3
f 183/1/3 178/1/3 182/1/3
f 184/1/3 180/1/3 179/1/3
f 185/1/3 180/1/3 184/1/3
f 186/1/3 184/1/3 183/1/3
f 187/1/3 184/1/3 186/1/3
f 193/1/3 189/1/3 188/1/3
f 194/1/3 189/1/3 193/1/3
f 195/1/3 191/1/3 190/1/3
f 196/1/3 191/1/3 195/1/3
f 198/1/3 193/1/3 192/1/3
f 199/1/3 193/1/3 198/1/3
f 200/1/3 197/1/3 196/1/3
f 201/1/3 197/1/3 200/1/3
f 206/1/3 203/1/3 202/1/3
f 207/1/3 203/1/3 206/1/3
f 210/1/3 205/1/3 204/1/3
f 211/1/3 205/1/3 210/1/3
f 212/1/3 208/1/3 207/1/3
f 213/1/3 208/1/3 212/1/3
f 214/1/3 210/1/3 209/1/3
f 215/1/3 210/1/3 214/1/3
f 219/3/3 217/3/3 216/3/3
f 221/3/3 219/3/3 218/3/3
f 222/3/3 217/3/3 219/3/3
f 222/3/3 219/3/3 221/3/3
f 223/3/3 217/3/3 222/3/3
f 224/2/3 221/2/3 220/2/3
f 224/2/3 222/2/3 221/2/3
f 225/2/3 222/2/3 224/2/3
f 226/1/4 227/1/4 231/1/4
f 231/1/4 227/1/4 232/1/4
f 228/1/4 229/1/4 233/1/4
f 233/1/4 229/1/4 234/1/4
f 230/1/4 231/1/4 238/1/4
f 238/1/4 231/1/4 239/1/4
f 234/1/4 235/1/4 240/1/4
f 240/1/4 235/1/4 241/1/4
f 236/3/4 237/3/4 243/3/4
f 242/3/4 243/3/4 245/3/4
f 243/3/4 237/3/4 246/3/4
f 245/3/4 243/3/4 246/3/4
f 246/3/4 237/3/4 247/3/4
f 244/2/4 245/2/4 251/2/4
f 245/2/4 246/2/4 251/2/4
f 251/2/4 246/2/4 252/2/4
f 248/1/4 249/1/4 253/1/4
f 253/1/4 249/1/4 254/1/4
f 250/1/4 251/1/4 257/1/4
f 257/1/4 251/1/4 258/1/4
f 254/1/4 255/1/4 259/1/4
f 259/1/4 255/1/4 260/1/4
f 256/1/4 257/1/4 261/1/4
f 261/1/4 257/1/4 262/1/4
f 263/1/4 264/1/4 266/1/4
f 266/1/4 264/1/4 267/1/4
f 265/1/4 266/1/4 270/1/4
f 270/1/4 266/1/4 271/1/4
f 267/1/4 268/1/4 272/1/4
f 272/1/4 268/1/4 273/1/4
f 269/1/4 270/1/4 275/1/4
f 275/1/4 270/1/4 276/1/4
f 273/1/4 274/1/4 279/1/4
f 279/1/4 274/1/4 280/1/4
f 276/1/4 277/1/4 281/1/4
f 281/1/4 277/1/4 282/1/4
f 278/1/4 279/1/4 283/1/4
f 283/1/4 279/1/4 284/1/4
f 282/1/4 283/1/4 285/1/4
f 285/1/4 283/1/4 286/1/4
f 287/1/4 288/1/4 290/1/4
f 290/1/4 288/1/4 291/1/4
f 289/1/4 290/1/4 293/1/4
f 291/1/4 292/1/4 293/1/4
f 290/1/4 291/1/4 293/1/4
f 293/1/4 292/1/4 294/1/4
f 294/1/4 292/1/4 295/1/4
f 295/1/4 292/1/4 296/1/4
f 294/1/4 295/1/4 297/1/4
f 297/1/4 295/1/4 298/1/4
f 302/1/5 300/1/5 299/1/5
f 303/1/5 300/1/5 302/1/5
f 305/1/5 302/1/5 301/1/5
f 305/1/5 304/1/5 303/1/5
f 305/1/5 303/1/5 302/1/5
f 306/1/5 304/1/5 305/1/5
f 307/1/5 304/1/5 306/1/5
f 308/1/5 304/1/5 307/1/5
f 309/1/5 307/1/5 306/1/5
f 310/1/5 307/1/5 309/1/5
f 314/1/5 312/1/5 311/1/5
f 315/1/5 312/1/5 314/1/5
f 318/1/5 314/1/5 313/1/5
f 319/1/5 314/1/5 318/1/5
f 320/1/5 316/1/5 315/1/5
f 321/1/5 316/1/5 320/1/5
f 323/1/5 318/1/5 317/1/5
f 324/1/5 318/1/5 323/1/5
f 327/1/5 322/1/5 321/1/5
f 328/1/5 322/1/5 327/1/5
f 329/1/5 325/1/5 324/1/5
f 330/1/5 325/1/5 329/1/5
f 331/1/5 327/1/5 326/1/5
f 332/1/5 327/1/5 331/1/5
f 333/1/5 331/1/5 330/1/5
f 334/1/5 331/1/5 333/1/5
f 340/1/5 336/1/5 335/1/5
f 341/1/5 336/1/5 340/1/5
f 342/1/5 338/1/5 337/1/5
f 343/1/5 338/1/5 342/1/5
f 345/1/5 340/1/5 339/1/5
f 346/1/5 340/1/5 345/1/5
f 347/1/5 344/1/5 343/1/5
f 348/1/5 344/1/5 347/1/5
f 353/1/5 350/1/5 349/1/5
f 354/1/5 350/1/5 353/1/5
f 357/1/5 352/1/5 351/1/5
f 358/1/5 352/1/5 357/1/5
f 359/1/5 355/1/5 354/1/5
f 360/1/5 355/1/5 359/1/5
f 361/1/5 357/1/5 356/1/5
f 362/1/5 357/1/5 361/1/5
f 365/3/5 364/3/5 363/3/5
f 366/3/5 364/3/5 365/3/5
f 369/3/5 368/3/5 367/3/5
f 370/3/5 368/3/5 369/3/5
f 371/1/6 372/1/6 376/1/6
f 376/1/6 372/1/6 377/1/6
f 373/1/6 374/1/6 378/1/6
f 378/1/6 374/1/6 379/1/6
f 375/1/6 376/1/6 381/1/6
f 381/1/6 376/1/6 382/1/6
f 379/1/6 380/1/6 383/1/6
f 383/1/6 380/1/6 384/1/6
f 385/1/6 386/1/6 389/1/6
f 389/1/6 386/1/6 390/1/6
f 387/1/6 388/1/6 393/1/6
f 393/1/6 388/1/6 394/1/6
f 390/1/6 391/1/6 395/1/6
f 395/1/6 391/1/6 396/1/6
f 392/1/6 393/1/6 397/1/6
f 397/1/6 393/1/6 398/1/6
f 399/4/6 400/4/6 403/4/6
f 400/1/6 401/1/6 404/1/6
f 403/4/6 400/4/6 404/4/6
f 404/1/6 401/1/6 405/1/6
f 402/4/6 403/4/6 408/4/6
f 408/4/6 403/4/6 409/4/6
f 405/1/6 406/1/6 410/1/6
f 410/1/6 406/1/6 411/1/6
f 407/1/6 408/1/6 413/1/6
f 413/1/6 408/1/6 414/1/6
f 411/1/6 412/1/6 417/1/6
f 417/1/6 412/1/6 418/1/6
f 414/1/6 415/1/6 419/1/6
f 419/1/6 415/1/6 420/1/6
f 416/1/6 417/1/6 421/1/6
f 421/1/6 417/1/6 422/1/6
f 420/1/6 421/1/6 423/1/6
f 423/1/6 421/1/6 424/1/6
f 425/4/6 426/4/6 429/4/6
f 426/1/6 427/1/6 430/1/6
f 429/4/6 426/4/6 430/4/6
f 430/1/6 427/1/6 431/1/6
f 428/1/6 429/1/6 433/1/6
f 431/1/6 432/1/6 433/1/6
f 430/1/6 431/1/6 433/1/6
f 429/1/6 430/1/6 433/1/6
f 433/1/6 432/1/6 434/1/6
f 428/1/6 433/1/6 435/1/6
f 435/1/6 433/1/6 436/1/6
f 436/1/6 433/1/6 437/1/6
f 434/1/6 432/1/6 438/1/6
f 438/1/6 432/1/6 439/1/6
f 436/1/6 437/1/6 440/1/6
f 437/1/6 438/1/6 440/1/6
f 440/1/6 438/1/6 441/1/6
f 442/2/6 443/2/6 444/2/6
f 444/2/6 443/2/6 445/2/6
f 446/3/6 447/3/6 448/3/6
f 448/3/6 447/3/6 449/3/6
