# MagicaVoxel @ Ephtracy

# group
o 

# material
mtllib river land1.mtl
usemtl palette

# normals
vn -1 0 0
vn 1 0 0
vn 0 0 1
vn 0 0 -1
vn 0 -1 0
vn 0 1 0

# texcoords
vt 0.822266 0.5
vt 0.826172 0.5
vt 0.830078 0.5
vt 0.900391 0.5
vt 0.904297 0.5

# verts
v -0.8 0 0.8
v -0.8 0 -0.8
v -0.8 1.3 0.8
v -0.8 1.3 -0.8
v 0 1.3 0.8
v 0 1.3 -0.8
v 0 1.5 0.8
v 0 1.5 -0.8
v 0.8 0 0.8
v 0.8 0 -0.8
v 0.8 1.3 0.8
v 0.8 1.3 -0.8
v 0.8 1.5 0.8
v 0.8 1.5 -0.8
v -0.8 0 0.8
v -0.8 1.3 0.8
v 0 1.3 0.8
v 0 1.5 0.8
v 0.8 0 0.8
v 0.8 1.3 0.8
v 0.8 1.5 0.8
v -0.8 0 -0.8
v -0.8 1.3 -0.8
v 0 1.3 -0.8
v 0 1.5 -0.8
v 0.8 0 -0.8
v 0.8 1.3 -0.8
v 0.8 1.5 -0.8
v -0.8 0 0.8
v 0.8 0 0.8
v -0.8 0 -0.8
v 0.8 0 -0.8
v -0.8 1.3 0.8
v 0 1.3 0.8
v -0.8 1.3 -0.8
v 0 1.3 -0.8
v 0 1.5 0.8
v 0.8 1.5 0.8
v 0 1.5 -0.8
v 0.8 1.5 -0.8

# faces
f 3/2/1 2/2/1 1/2/1
f 4/2/1 2/2/1 3/2/1
f 7/5/1 6/5/1 5/5/1
f 8/5/1 6/5/1 7/5/1
f 9/2/2 10/2/2 11/2/2
f 11/2/2 10/2/2 12/2/2
f 11/5/2 12/5/2 13/5/2
f 13/5/2 12/5/2 14/5/2
f 17/2/3 16/2/3 15/2/3
f 19/2/3 17/2/3 15/2/3
f 20/5/3 18/5/3 17/5/3
f 20/2/3 17/2/3 19/2/3
f 21/5/3 18/5/3 20/5/3
f 22/2/4 23/2/4 24/2/4
f 22/2/4 24/2/4 26/2/4
f 24/5/4 25/5/4 27/5/4
f 26/2/4 24/2/4 27/2/4
f 27/5/4 25/5/4 28/5/4
f 31/2/5 30/2/5 29/2/5
f 32/2/5 30/2/5 31/2/5
f 33/2/6 34/2/6 35/2/6
f 35/2/6 34/2/6 36/2/6
f 37/5/6 38/5/6 39/5/6
f 39/5/6 38/5/6 40/5/6
