# MagicaVoxel @ Ephtracy

# group
o 

# material
mtllib river&sea water&land2.mtl
usemtl palette

# normals
vn -1 0 0
vn 1 0 0
vn 0 0 1
vn 0 0 -1
vn 0 -1 0
vn 0 1 0

# texcoords
vt 0.822266 0.5
vt 0.826172 0.5
vt 0.830078 0.5
vt 0.900391 0.5
vt 0.904297 0.5

# verts
v -0.8 0 0.8
v -0.8 0 0.2
v -0.8 0 -0.8
v -0.8 1.3 0.8
v -0.8 1.3 0.2
v -0.8 1.3 -0.8
v 0 1.3 0.8
v 0 1.3 -0.8
v 0 1.5 0.8
v 0 1.5 -0.8
v 0.8 0 0.8
v 0.8 0 -0.8
v 0.8 1.3 0.8
v 0.8 1.3 -0.8
v 0.8 1.5 0.8
v 0.8 1.5 -0.8
v -0.8 0 0.8
v -0.8 1.3 0.8
v -0.7 0 0.8
v -0.7 1.3 0.8
v 0 1.3 0.8
v 0 1.5 0.8
v 0.8 0 0.8
v 0.8 1.3 0.8
v 0.8 1.5 0.8
v -0.8 0 -0.8
v -0.8 1.3 -0.8
v 0 1.3 -0.8
v 0 1.5 -0.8
v 0.8 0 -0.8
v 0.8 1.3 -0.8
v 0.8 1.5 -0.8
v -0.8 0 0.8
v -0.7 0 0.8
v 0.8 0 0.8
v -0.8 0 0.2
v -0.7 0 0.2
v -0.8 0 -0.8
v 0.8 0 -0.8
v -0.8 1.3 0.8
v -0.7 1.3 0.8
v 0 1.3 0.8
v -0.7 1.3 0.6
v -0.6 1.3 0.6
v -0.7 1.3 0.4
v -0.6 1.3 0.4
v -0.8 1.3 0.2
v -0.7 1.3 0.2
v -0.8 1.3 -0.8
v 0 1.3 -0.8
v 0 1.5 0.8
v 0.8 1.5 0.8
v 0 1.5 -0.8
v 0.8 1.5 -0.8

# faces
f 4/1/1 2/1/1 1/1/1
f 5/2/1 3/2/1 2/2/1
f 5/1/1 2/1/1 4/1/1
f 6/2/1 3/2/1 5/2/1
f 9/5/1 8/5/1 7/5/1
f 10/5/1 8/5/1 9/5/1
f 11/2/2 12/2/2 13/2/2
f 13/2/2 12/2/2 14/2/2
f 13/5/2 14/5/2 15/5/2
f 15/5/2 14/5/2 16/5/2
f 19/1/3 18/1/3 17/1/3
f 20/1/3 18/1/3 19/1/3
f 21/2/3 20/2/3 19/2/3
f 23/2/3 21/2/3 19/2/3
f 24/5/3 22/5/3 21/5/3
f 24/2/3 21/2/3 23/2/3
f 25/5/3 22/5/3 24/5/3
f 26/2/4 27/2/4 28/2/4
f 26/2/4 28/2/4 30/2/4
f 28/5/4 29/5/4 31/5/4
f 30/2/4 28/2/4 31/2/4
f 31/5/4 29/5/4 32/5/4
f 36/1/5 34/1/5 33/1/5
f 37/2/5 35/2/5 34/2/5
f 37/1/5 34/1/5 36/1/5
f 38/2/5 37/2/5 36/2/5
f 39/2/5 35/2/5 37/2/5
f 39/2/5 37/2/5 38/2/5
f 40/1/6 41/1/6 43/1/6
f 41/2/6 42/2/6 43/2/6
f 43/2/6 42/2/6 44/2/6
f 40/1/6 43/1/6 45/1/6
f 43/1/6 44/1/6 45/1/6
f 44/2/6 42/2/6 46/2/6
f 45/1/6 44/1/6 46/1/6
f 40/1/6 45/1/6 47/1/6
f 45/2/6 46/2/6 48/2/6
f 47/1/6 45/1/6 48/1/6
f 47/2/6 48/2/6 49/2/6
f 46/2/6 42/2/6 50/2/6
f 49/2/6 48/2/6 50/2/6
f 48/2/6 46/2/6 50/2/6
f 51/5/6 52/5/6 53/5/6
f 53/5/6 52/5/6 54/5/6
