# MagicaVoxel @ Ephtracy

# group
o 

# material
mtllib river&sea water3.mtl
usemtl palette

# normals
vn -1 0 0
vn 1 0 0
vn 0 0 1
vn 0 0 -1
vn 0 -1 0
vn 0 1 0

# texcoords
vt 0.822266 0.5
vt 0.826172 0.5
vt 0.830078 0.5

# verts
v -0.8 0 0.8
v -0.8 0 -0.8
v -0.8 1.3 0.8
v -0.8 1.3 -0.8
v 0.8 0 0.8
v 0.8 0 -0.8
v 0.8 0.1 0.7
v 0.8 0.1 -0.8
v 0.8 1.2 0.7
v 0.8 1.2 0.6
v 0.8 1.2 0.1
v 0.8 1.3 0.8
v 0.8 1.3 0.6
v 0.8 1.3 0.1
v 0.8 1.3 -0.8
v -0.8 0 0.8
v -0.8 1.3 0.8
v 0.8 0 0.8
v 0.8 1.3 0.8
v -0.8 0 -0.8
v -0.8 1.3 -0.8
v -0.3 0.1 -0.8
v -0.3 1.3 -0.8
v 0.1 0.1 -0.8
v 0.1 1.3 -0.8
v 0.8 0 -0.8
v 0.8 0.1 -0.8
v 0.8 1.3 -0.8
v -0.8 0 0.8
v 0.8 0 0.8
v -0.8 0 -0.8
v 0.8 0 -0.8
v -0.8 1.3 0.8
v 0.8 1.3 0.8
v 0.7 1.3 0.6
v 0.8 1.3 0.6
v 0.4 1.3 0.5
v 0.7 1.3 0.5
v 0.1 1.3 0.4
v 0.4 1.3 0.4
v -0.1 1.3 0.3
v 0.1 1.3 0.3
v -0.3 1.3 0.2
v -0.1 1.3 0.2
v 0.5 1.3 0.1
v 0.8 1.3 0.1
v -0.4 1.3 0
v -0.3 1.3 0
v 0.3 1.3 0
v 0.5 1.3 0
v 0.2 1.3 -0.1
v 0.3 1.3 -0.1
v 0.1 1.3 -0.2
v 0.2 1.3 -0.2
v 0 1.3 -0.3
v 0.1 1.3 -0.3
v -0.4 1.3 -0.6
v -0.3 1.3 -0.6
v 0 1.3 -0.6
v 0.1 1.3 -0.6
v -0.8 1.3 -0.8
v -0.3 1.3 -0.8
v 0.1 1.3 -0.8
v 0.8 1.3 -0.8

# faces
f 3/3/1 2/3/1 1/3/1
f 4/3/1 2/3/1 3/3/1
f 5/3/2 6/3/2 7/3/2
f 7/3/2 6/3/2 8/3/2
f 5/3/2 7/3/2 9/3/2
f 7/2/2 8/2/2 9/2/2
f 9/2/2 8/2/2 10/2/2
f 10/2/2 8/2/2 11/2/2
f 5/3/2 9/3/2 12/3/2
f 9/3/2 10/3/2 12/3/2
f 10/1/2 11/1/2 13/1/2
f 12/3/2 10/3/2 13/3/2
f 11/2/2 8/2/2 14/2/2
f 13/1/2 11/1/2 14/1/2
f 14/2/2 8/2/2 15/2/2
f 18/3/3 17/3/3 16/3/3
f 19/3/3 17/3/3 18/3/3
f 20/3/4 21/3/4 22/3/4
f 22/3/4 21/3/4 23/3/4
f 20/3/4 22/3/4 24/3/4
f 22/1/4 23/1/4 24/1/4
f 24/1/4 23/1/4 25/1/4
f 20/3/4 24/3/4 26/3/4
f 24/2/4 25/2/4 27/2/4
f 26/3/4 24/3/4 27/3/4
f 27/2/4 25/2/4 28/2/4
f 31/3/5 30/3/5 29/3/5
f 32/3/5 30/3/5 31/3/5
f 33/3/6 34/3/6 35/3/6
f 35/3/6 34/3/6 36/3/6
f 33/3/6 35/3/6 37/3/6
f 35/1/6 36/1/6 38/1/6
f 37/3/6 35/3/6 38/3/6
f 33/3/6 37/3/6 39/3/6
f 37/1/6 38/1/6 40/1/6
f 39/3/6 37/3/6 40/3/6
f 33/3/6 39/3/6 41/3/6
f 39/1/6 40/1/6 42/1/6
f 41/3/6 39/3/6 42/3/6
f 33/3/6 41/3/6 43/3/6
f 41/1/6 42/1/6 44/1/6
f 43/3/6 41/3/6 44/3/6
f 40/1/6 38/1/6 45/1/6
f 44/1/6 42/1/6 45/1/6
f 43/1/6 44/1/6 45/1/6
f 42/1/6 40/1/6 45/1/6
f 38/1/6 36/1/6 46/1/6
f 45/1/6 38/1/6 46/1/6
f 33/3/6 43/3/6 47/3/6
f 43/1/6 45/1/6 48/1/6
f 47/3/6 43/3/6 48/3/6
f 48/1/6 45/1/6 49/1/6
f 45/2/6 46/2/6 50/2/6
f 49/1/6 45/1/6 50/1/6
f 48/1/6 49/1/6 51/1/6
f 47/1/6 48/1/6 51/1/6
f 49/2/6 50/2/6 52/2/6
f 51/1/6 49/1/6 52/1/6
f 47/1/6 51/1/6 53/1/6
f 51/2/6 52/2/6 54/2/6
f 53/1/6 51/1/6 54/1/6
f 47/1/6 53/1/6 55/1/6
f 53/2/6 54/2/6 56/2/6
f 55/1/6 53/1/6 56/1/6
f 33/3/6 47/3/6 57/3/6
f 47/1/6 55/1/6 57/1/6
f 57/1/6 55/1/6 58/1/6
f 55/2/6 56/2/6 59/2/6
f 58/1/6 55/1/6 59/1/6
f 56/2/6 54/2/6 60/2/6
f 59/2/6 56/2/6 60/2/6
f 57/3/6 58/3/6 61/3/6
f 33/3/6 57/3/6 61/3/6
f 58/1/6 59/1/6 62/1/6
f 61/3/6 58/3/6 62/3/6
f 59/1/6 60/1/6 62/1/6
f 60/2/6 54/2/6 63/2/6
f 62/1/6 60/1/6 63/1/6
f 50/2/6 46/2/6 64/2/6
f 63/2/6 54/2/6 64/2/6
f 52/2/6 50/2/6 64/2/6
f 54/2/6 52/2/6 64/2/6
