# MagicaVoxel @ Ephtracy

# group
o 

# material
mtllib land.mtl
usemtl palette

# normals
vn -1 0 0
vn 1 0 0
vn 0 0 1
vn 0 0 -1
vn 0 -1 0
vn 0 1 0

# texcoords
vt 0.822266 0.5
vt 0.826172 0.5
vt 0.830078 0.5
vt 0.900391 0.5
vt 0.904297 0.5

# verts
v -0.8 0 0.8
v -0.8 0 -0.8
v -0.8 1.6 0.8
v -0.8 1.6 -0.8
v 0.8 0 0.8
v 0.8 0 -0.8
v 0.8 1.6 0.8
v 0.8 1.6 -0.8
v -0.8 0 0.8
v -0.8 1.6 0.8
v 0.8 0 0.8
v 0.8 1.6 0.8
v -0.8 0 -0.8
v -0.8 1.6 -0.8
v 0.8 0 -0.8
v 0.8 1.6 -0.8
v -0.8 0 0.8
v 0.8 0 0.8
v -0.8 0 -0.8
v 0.8 0 -0.8
v -0.8 1.6 0.8
v 0.8 1.6 0.8
v -0.8 1.6 -0.8
v 0.8 1.6 -0.8

# faces
f 3/5/1 2/5/1 1/5/1
f 4/5/1 2/5/1 3/5/1
f 5/5/2 6/5/2 7/5/2
f 7/5/2 6/5/2 8/5/2
f 11/5/3 10/5/3 9/5/3
f 12/5/3 10/5/3 11/5/3
f 13/5/4 14/5/4 15/5/4
f 15/5/4 14/5/4 16/5/4
f 19/5/5 18/5/5 17/5/5
f 20/5/5 18/5/5 19/5/5
f 21/5/6 22/5/6 23/5/6
f 23/5/6 22/5/6 24/5/6
