# MagicaVoxel @ Ephtracy

# group
o 

# material
mtllib swam water&land2.mtl
usemtl palette

# normals
vn -1 0 0
vn 1 0 0
vn 0 0 1
vn 0 0 -1
vn 0 -1 0
vn 0 1 0

# texcoords
vt 0.650391 0.5
vt 0.818359 0.5

# verts
v -0.8 0 0.8
v -0.8 0 -0.8
v -0.8 1.2 0.8
v -0.8 1.2 0
v -0.8 1.2 -0.8
v -0.8 1.4 0
v -0.8 1.4 -0.8
v -0.4 1.2 0
v -0.4 1.2 -0.1
v -0.4 1.4 0
v -0.4 1.4 -0.1
v -0.2 1.2 -0.1
v -0.2 1.2 -0.2
v -0.2 1.4 -0.1
v -0.2 1.4 -0.2
v -0.1 1.2 -0.2
v -0.1 1.2 -0.4
v -0.1 1.4 -0.2
v -0.1 1.4 -0.4
v 0 1.2 -0.4
v 0 1.2 -0.8
v 0 1.4 -0.4
v 0 1.4 -0.8
v 0.8 0 0.8
v 0.8 0 -0.8
v 0.8 1.2 0.8
v 0.8 1.2 -0.8
v -0.8 0 0.8
v -0.8 1.2 0.8
v 0.8 0 0.8
v 0.8 1.2 0.8
v -0.8 1.2 0
v -0.8 1.4 0
v -0.4 1.2 0
v -0.4 1.4 0
v -0.4 1.2 -0.1
v -0.4 1.4 -0.1
v -0.2 1.2 -0.1
v -0.2 1.4 -0.1
v -0.2 1.2 -0.2
v -0.2 1.4 -0.2
v -0.1 1.2 -0.2
v -0.1 1.4 -0.2
v -0.1 1.2 -0.4
v -0.1 1.4 -0.4
v 0 1.2 -0.4
v 0 1.4 -0.4
v -0.8 0 -0.8
v -0.8 1.2 -0.8
v -0.8 1.4 -0.8
v 0 1.2 -0.8
v 0 1.4 -0.8
v 0.8 0 -0.8
v 0.8 1.2 -0.8
v -0.8 0 0.8
v 0.8 0 0.8
v -0.8 0 -0.8
v 0.8 0 -0.8
v -0.8 1.2 0.8
v 0.8 1.2 0.8
v -0.8 1.2 0
v -0.4 1.2 0
v -0.4 1.2 -0.1
v -0.2 1.2 -0.1
v -0.2 1.2 -0.2
v -0.1 1.2 -0.2
v -0.1 1.2 -0.4
v 0 1.2 -0.4
v 0 1.2 -0.8
v 0.8 1.2 -0.8
v -0.8 1.4 0
v -0.4 1.4 0
v -0.4 1.4 -0.1
v -0.2 1.4 -0.1
v -0.2 1.4 -0.2
v -0.1 1.4 -0.2
v -0.1 1.4 -0.4
v 0 1.4 -0.4
v -0.8 1.4 -0.8
v 0 1.4 -0.8

# faces
f 3/1/1 2/1/1 1/1/1
f 4/1/1 2/1/1 3/1/1
f 5/1/1 2/1/1 4/1/1
f 6/2/1 5/2/1 4/2/1
f 7/2/1 5/2/1 6/2/1
f 8/2/2 9/2/2 10/2/2
f 10/2/2 9/2/2 11/2/2
f 12/2/2 13/2/2 14/2/2
f 14/2/2 13/2/2 15/2/2
f 16/2/2 17/2/2 18/2/2
f 18/2/2 17/2/2 19/2/2
f 20/2/2 21/2/2 22/2/2
f 22/2/2 21/2/2 23/2/2
f 24/1/2 25/1/2 26/1/2
f 26/1/2 25/1/2 27/1/2
f 30/1/3 29/1/3 28/1/3
f 31/1/3 29/1/3 30/1/3
f 34/2/3 33/2/3 32/2/3
f 35/2/3 33/2/3 34/2/3
f 38/2/3 37/2/3 36/2/3
f 39/2/3 37/2/3 38/2/3
f 42/2/3 41/2/3 40/2/3
f 43/2/3 41/2/3 42/2/3
f 46/2/3 45/2/3 44/2/3
f 47/2/3 45/2/3 46/2/3
f 48/1/4 49/1/4 51/1/4
f 49/2/4 50/2/4 51/2/4
f 51/2/4 50/2/4 52/2/4
f 48/1/4 51/1/4 53/1/4
f 53/1/4 51/1/4 54/1/4
f 57/1/5 56/1/5 55/1/5
f 58/1/5 56/1/5 57/1/5
f 59/1/6 60/1/6 61/1/6
f 61/1/6 60/1/6 62/1/6
f 62/1/6 60/1/6 63/1/6
f 63/1/6 60/1/6 64/1/6
f 64/1/6 60/1/6 65/1/6
f 65/1/6 60/1/6 66/1/6
f 66/1/6 60/1/6 67/1/6
f 67/1/6 60/1/6 68/1/6
f 68/1/6 60/1/6 69/1/6
f 69/1/6 60/1/6 70/1/6
f 71/2/6 72/2/6 73/2/6
f 73/2/6 74/2/6 75/2/6
f 75/2/6 76/2/6 77/2/6
f 71/2/6 73/2/6 79/2/6
f 77/2/6 78/2/6 79/2/6
f 75/2/6 77/2/6 79/2/6
f 73/2/6 75/2/6 79/2/6
f 79/2/6 78/2/6 80/2/6
