# MagicaVoxel @ Ephtracy

# group
o 

# material
mtllib tree 2.mtl
usemtl palette

# normals
vn -1 0 0
vn 1 0 0
vn 0 0 1
vn 0 0 -1
vn 0 -1 0
vn 0 1 0

# texcoords
vt 0.435547 0.5
vt 0.583984 0.5

# verts
v -0.4 0.5 0.5
v -0.4 0.5 -0.2
v -0.4 1.2 0.5
v -0.4 1.2 -0.2
v -0.1 0.7 -0.2
v -0.1 0.7 -0.5
v -0.1 1.2 0.2
v -0.1 1.2 -0.2
v -0.1 1.4 0.2
v -0.1 1.4 -0.5
v 0 0 0.1
v 0 0 -0.1
v 0 0.5 0.1
v 0 0.5 -0.1
v 0.2 0 0.1
v 0.2 0 -0.1
v 0.2 0.5 0.1
v 0.2 0.5 -0.1
v 0.3 0.5 0.5
v 0.3 0.5 -0.2
v 0.3 0.7 0.2
v 0.3 0.7 -0.2
v 0.3 1.2 0.5
v 0.3 1.2 0.2
v 0.6 0.7 0.2
v 0.6 0.7 -0.5
v 0.6 1.4 0.2
v 0.6 1.4 -0.5
v -0.4 0.5 0.5
v -0.4 1.2 0.5
v 0.3 0.5 0.5
v 0.3 1.2 0.5
v -0.1 1.2 0.2
v -0.1 1.4 0.2
v 0.3 0.7 0.2
v 0.3 1.2 0.2
v 0.6 0.7 0.2
v 0.6 1.4 0.2
v 0 0 0.1
v 0 0.5 0.1
v 0.2 0 0.1
v 0.2 0.5 0.1
v 0 0 -0.1
v 0 0.5 -0.1
v 0.2 0 -0.1
v 0.2 0.5 -0.1
v -0.4 0.5 -0.2
v -0.4 1.2 -0.2
v -0.1 0.7 -0.2
v -0.1 1.2 -0.2
v 0.3 0.5 -0.2
v 0.3 0.7 -0.2
v -0.1 0.7 -0.5
v -0.1 1.4 -0.5
v 0.6 0.7 -0.5
v 0.6 1.4 -0.5
v 0 0 0.1
v 0.2 0 0.1
v 0 0 -0.1
v 0.2 0 -0.1
v -0.4 0.5 0.5
v 0.3 0.5 0.5
v 0 0.5 0.1
v 0.2 0.5 0.1
v 0 0.5 -0.1
v 0.2 0.5 -0.1
v -0.4 0.5 -0.2
v 0.3 0.5 -0.2
v 0.3 0.7 0.2
v 0.6 0.7 0.2
v -0.1 0.7 -0.2
v 0.3 0.7 -0.2
v -0.1 0.7 -0.5
v 0.6 0.7 -0.5
v -0.4 1.2 0.5
v 0.3 1.2 0.5
v -0.1 1.2 0.2
v 0.3 1.2 0.2
v -0.4 1.2 -0.2
v -0.1 1.2 -0.2
v -0.1 1.4 0.2
v 0.6 1.4 0.2
v -0.1 1.4 -0.5
v 0.6 1.4 -0.5

# faces
f 3/2/1 2/2/1 1/2/1
f 4/2/1 2/2/1 3/2/1
f 8/2/1 6/2/1 5/2/1
f 9/2/1 8/2/1 7/2/1
f 10/2/1 6/2/1 8/2/1
f 10/2/1 8/2/1 9/2/1
f 13/1/1 12/1/1 11/1/1
f 14/1/1 12/1/1 13/1/1
f 15/1/2 16/1/2 17/1/2
f 17/1/2 16/1/2 18/1/2
f 19/2/2 20/2/2 21/2/2
f 21/2/2 20/2/2 22/2/2
f 19/2/2 21/2/2 23/2/2
f 23/2/2 21/2/2 24/2/2
f 25/2/2 26/2/2 27/2/2
f 27/2/2 26/2/2 28/2/2
f 31/2/3 30/2/3 29/2/3
f 32/2/3 30/2/3 31/2/3
f 36/2/3 34/2/3 33/2/3
f 37/2/3 36/2/3 35/2/3
f 38/2/3 34/2/3 36/2/3
f 38/2/3 36/2/3 37/2/3
f 41/1/3 40/1/3 39/1/3
f 42/1/3 40/1/3 41/1/3
f 43/1/4 44/1/4 45/1/4
f 45/1/4 44/1/4 46/1/4
f 47/2/4 48/2/4 49/2/4
f 49/2/4 48/2/4 50/2/4
f 47/2/4 49/2/4 51/2/4
f 51/2/4 49/2/4 52/2/4
f 53/2/4 54/2/4 55/2/4
f 55/2/4 54/2/4 56/2/4
f 59/1/5 58/1/5 57/1/5
f 60/1/5 58/1/5 59/1/5
f 63/2/5 62/2/5 61/2/5
f 64/2/5 62/2/5 63/2/5
f 65/2/5 63/2/5 61/2/5
f 66/2/5 62/2/5 64/2/5
f 67/2/5 65/2/5 61/2/5
f 67/2/5 66/2/5 65/2/5
f 68/2/5 62/2/5 66/2/5
f 68/2/5 66/2/5 67/2/5
f 72/2/5 70/2/5 69/2/5
f 73/2/5 72/2/5 71/2/5
f 74/2/5 70/2/5 72/2/5
f 74/2/5 72/2/5 73/2/5
f 75/2/6 76/2/6 77/2/6
f 77/2/6 76/2/6 78/2/6
f 75/2/6 77/2/6 79/2/6
f 79/2/6 77/2/6 80/2/6
f 81/2/6 82/2/6 83/2/6
f 83/2/6 82/2/6 84/2/6
