# MagicaVoxel @ Ephtracy

# group
o 

# material
mtllib river&sea water2.mtl
usemtl palette

# normals
vn -1 0 0
vn 1 0 0
vn 0 0 1
vn 0 0 -1
vn 0 -1 0
vn 0 1 0

# texcoords
vt 0.822266 0.5
vt 0.826172 0.5
vt 0.830078 0.5

# verts
v -0.8 0 0.8
v -0.8 0 -0.8
v -0.8 1.3 0.8
v -0.8 1.3 -0.8
v 0.8 0 0.8
v 0.8 0 0.2
v 0.8 0 -0.8
v 0.8 1.3 0.8
v 0.8 1.3 0.2
v 0.8 1.3 -0.8
v -0.8 0 0.8
v -0.8 1.3 0.8
v -0.4 0 0.8
v -0.4 1.3 0.8
v -0.1 0 0.8
v -0.1 1.3 0.8
v 0.8 0 0.8
v 0.8 1.3 0.8
v -0.8 0 -0.8
v -0.8 1.3 -0.8
v 0.1 0 -0.8
v 0.1 1.3 -0.8
v 0.8 0 -0.8
v 0.8 1.3 -0.8
v -0.8 0 0.8
v -0.4 0 0.8
v -0.1 0 0.8
v 0.8 0 0.8
v -0.4 0 0.7
v -0.3 0 0.7
v -0.1 0 0.7
v 0.1 0 0.7
v -0.3 0 0.6
v -0.2 0 0.6
v -0.2 0 0.5
v -0.1 0 0.5
v -0.1 0 0.4
v 0 0 0.4
v 0 0 0.2
v 0.1 0 0.2
v 0.8 0 0.2
v -0.8 0 -0.8
v 0.1 0 -0.8
v 0.8 0 -0.8
v -0.8 1.3 0.8
v -0.4 1.3 0.8
v -0.1 1.3 0.8
v 0.8 1.3 0.8
v -0.1 1.3 0.7
v 0 1.3 0.7
v -0.4 1.3 0.6
v -0.3 1.3 0.6
v 0 1.3 0.6
v 0.1 1.3 0.6
v 0.1 1.3 0.4
v 0.2 1.3 0.4
v 0.2 1.3 0.3
v 0.4 1.3 0.3
v 0.4 1.3 0.2
v 0.8 1.3 0.2
v -0.3 1.3 0.1
v -0.2 1.3 0.1
v -0.2 1.3 -0.3
v -0.1 1.3 -0.3
v -0.1 1.3 -0.5
v 0 1.3 -0.5
v 0 1.3 -0.6
v 0.1 1.3 -0.6
v -0.8 1.3 -0.8
v 0.1 1.3 -0.8
v 0.8 1.3 -0.8

# faces
f 3/3/1 2/3/1 1/3/1
f 4/3/1 2/3/1 3/3/1
f 5/2/2 6/2/2 8/2/2
f 6/1/2 7/1/2 9/1/2
f 8/2/2 6/2/2 9/2/2
f 9/1/2 7/1/2 10/1/2
f 13/3/3 12/3/3 11/3/3
f 14/3/3 12/3/3 13/3/3
f 15/1/3 14/1/3 13/1/3
f 16/1/3 14/1/3 15/1/3
f 17/2/3 16/2/3 15/2/3
f 18/2/3 16/2/3 17/2/3
f 19/3/4 20/3/4 21/3/4
f 21/3/4 20/3/4 22/3/4
f 21/1/4 22/1/4 23/1/4
f 23/1/4 22/1/4 24/1/4
f 29/3/5 26/3/5 25/3/5
f 29/1/5 27/1/5 26/1/5
f 30/1/5 27/1/5 29/1/5
f 31/2/5 28/2/5 27/2/5
f 31/1/5 27/1/5 30/1/5
f 32/2/5 28/2/5 31/2/5
f 33/3/5 30/3/5 29/3/5
f 33/1/5 31/1/5 30/1/5
f 33/1/5 32/1/5 31/1/5
f 34/1/5 32/1/5 33/1/5
f 35/3/5 34/3/5 33/3/5
f 35/1/5 32/1/5 34/1/5
f 36/1/5 32/1/5 35/1/5
f 37/3/5 36/3/5 35/3/5
f 37/1/5 32/1/5 36/1/5
f 38/1/5 32/1/5 37/1/5
f 39/3/5 38/3/5 37/3/5
f 39/1/5 32/1/5 38/1/5
f 40/2/5 28/2/5 32/2/5
f 40/1/5 32/1/5 39/1/5
f 41/2/5 28/2/5 40/2/5
f 42/3/5 39/3/5 37/3/5
f 42/3/5 29/3/5 25/3/5
f 42/3/5 33/3/5 29/3/5
f 42/3/5 40/3/5 39/3/5
f 42/3/5 37/3/5 35/3/5
f 42/3/5 35/3/5 33/3/5
f 43/1/5 41/1/5 40/1/5
f 43/3/5 40/3/5 42/3/5
f 44/1/5 41/1/5 43/1/5
f 46/1/6 47/1/6 49/1/6
f 47/2/6 48/2/6 49/2/6
f 49/2/6 48/2/6 50/2/6
f 45/3/6 46/3/6 51/3/6
f 46/1/6 49/1/6 51/1/6
f 49/1/6 50/1/6 51/1/6
f 51/1/6 50/1/6 52/1/6
f 50/2/6 48/2/6 53/2/6
f 52/1/6 50/1/6 53/1/6
f 53/2/6 48/2/6 54/2/6
f 52/1/6 53/1/6 55/1/6
f 54/2/6 48/2/6 55/2/6
f 53/1/6 54/1/6 55/1/6
f 55/2/6 48/2/6 56/2/6
f 55/1/6 56/1/6 57/1/6
f 56/2/6 48/2/6 57/2/6
f 57/2/6 48/2/6 58/2/6
f 57/1/6 58/1/6 59/1/6
f 58/2/6 48/2/6 59/2/6
f 59/2/6 48/2/6 60/2/6
f 51/3/6 52/3/6 61/3/6
f 52/1/6 55/1/6 61/1/6
f 59/1/6 60/1/6 61/1/6
f 57/1/6 59/1/6 61/1/6
f 55/1/6 57/1/6 61/1/6
f 61/1/6 60/1/6 62/1/6
f 61/3/6 62/3/6 63/3/6
f 62/1/6 60/1/6 63/1/6
f 63/1/6 60/1/6 64/1/6
f 63/3/6 64/3/6 65/3/6
f 64/1/6 60/1/6 65/1/6
f 65/1/6 60/1/6 66/1/6
f 65/3/6 66/3/6 67/3/6
f 66/1/6 60/1/6 67/1/6
f 67/1/6 60/1/6 68/1/6
f 45/3/6 51/3/6 69/3/6
f 51/3/6 61/3/6 69/3/6
f 67/3/6 68/3/6 69/3/6
f 65/3/6 67/3/6 69/3/6
f 63/3/6 65/3/6 69/3/6
f 61/3/6 63/3/6 69/3/6
f 68/1/6 60/1/6 70/1/6
f 69/3/6 68/3/6 70/3/6
f 70/1/6 60/1/6 71/1/6
